<mxfile host="app.diagrams.net" modified="2024-03-14T02:17:43.621Z" agent="Mozilla/5.0 (Macintosh; Intel Mac OS X 10_15_7) AppleWebKit/537.36 (KHTML, like Gecko) Chrome/122.0.0.0 Safari/537.36" version="24.0.6" etag="RkJMspxu8Baj7xc76EDU" type="device">
  <diagram name="Page-0" id="Page-0">
    <mxGraphModel dx="954" dy="518" grid="1" gridSize="10" guides="1" tooltips="1" connect="1" arrows="1" fold="1" page="1" pageScale="1" pageWidth="863" pageHeight="631" math="0" shadow="0">
      <root>
        <mxCell id="0" />
        <mxCell id="1" parent="0" />
        <mxCell id="2" style="vsdxID=1;fillColor=none;gradientColor=none;image;aspect=fixed;image=data:image/png,/9j/4AAQSkZJRgABAQAAAQABAAD/2wBDAAgGBgcGBQgHBwcJCQgKDBQNDAsLDBkSEw8UHRofHh0aHBwgJC4nICIsIxwcKDcpLDAxNDQ0Hyc5PTgyPC4zNDL/2wBDAQkJCQwLDBgNDRgyIRwhMjIyMjIyMjIyMjIyMjIyMjIyMjIyMjIyMjIyMjIyMjIyMjIyMjIyMjIyMjIyMjIyMjL/wAARCAJJAyADASIAAhEBAxEB/8QAHwAAAQUBAQEBAQEAAAAAAAAAAAECAwQFBgcICQoL/8QAtRAAAgEDAwIEAwUFBAQAAAF9AQIDAAQRBRIhMUEGE1FhByJxFDKBkaEII0KxwRVS0fAkM2JyggkKFhcYGRolJicoKSo0NTY3ODk6Q0RFRkdISUpTVFVWV1hZWmNkZWZnaGlqc3R1dnd4eXqDhIWGh4iJipKTlJWWl5iZmqKjpKWmp6ipqrKztLW2t7i5usLDxMXGx8jJytLT1NXW19jZ2uHi4+Tl5ufo6erx8vP09fb3+Pn6/8QAHwEAAwEBAQEBAQEBAQAAAAAAAAECAwQFBgcICQoL/8QAtREAAgECBAQDBAcFBAQAAQJ3AAECAxEEBSExBhJBUQdhcRMiMoEIFEKRobHBCSMzUvAVYnLRChYkNOEl8RcYGRomJygpKjU2Nzg5OkNERUZHSElKU1RVVldYWVpjZGVmZ2hpanN0dXZ3eHl6goOEhYaHiImKkpOUlZaXmJmaoqOkpaanqKmqsrO0tba3uLm6wsPExcbHyMnK0tPU1dbX2Nna4uPk5ebn6Onq8vP09fb3+Pn6/9oADAMBAAIRAxEAPwD33PzDg9KXd7Gg/fH0pe1ADVPyjg0E/MODSr90UH7woAN3sajhPytwfvt/M1LUcP3G/wB9v5mgBxPI4PWl3exoPVfrS0AMU8Hg9aVj04PWlXofrQ3b60AG72NRo37yXg/eH8hUtRx/6yX/AHh/IUAOY8dD1pd3saG6fiKWgBgPJ4NKx+XoaUfeahvumgA3exqMH/SG4P3B/M1LUY/4+G/3B/M0AOY/KeD0pd3saG+6fpS0AMz8/Q9KUtweDR/H+FKfun6UAIG4HBpjH9+nB+639KkHQUxv9fH/ALrf0oAfu9jSKflHB6U6kX7o+lADSfmHBp272NIfvinUANU/L0NMkPzR8H7/APQ1Iv3RTJPvRf7/APQ0AP3expFPHQ9adSL0/E0ANY9OD1p272NI3UfWnUANU9eD1pkzfu+h6j+YqRe/1pk3+r/EfzFAD93saQHk8HrTqQdW+tADWPy9DTt3saRvu06gBoPzHg02U/uX4P3TTx9402b/AFMn+6f5UAKrfKOD0oz8x4PSlX7o+lA++fpQAhb5TwaA3A4NK33TQOgoATPz9D0pd3saP4/wpaAIoG/cJwelPJ+YcHpTYP8AUJ9Kefvj6UAG72NIp+UcGnUi/dFACE/MODS7vY0H7y0tAEUR4bg/fP8AOnk8jg9abD0b/fP86eeq/WgA3expqnrwetPpF7/WgBGbpwetLu9jQ3b60tAESH97Lweo/lTmPHQ9aRP9bL9R/Knt0/EUAG72NNB+Y8Gn0g+81ACMflPBpd3saG+6aWgCLP8ApB4P3B/OnsflPB6U3/l4P+4P509vun6UAG72NNz8/Q9Kf2pP4/woAQtweDQG+UcGnHoaRfuj6UARsf30fB6GpN3saY3+vj+h/pUlADVPyjg0hPzDg05fuj6UH7woAN3saRT8vQ06kX7tAEcp5j4P3xUm72NMl6x/74qSgBqng8HrSMenB605eh+pobt9aADd7GkB68HrTqRe/wBaAI5z+6PB7fzqTd7GmT/6o/UfzqSgBobk8GkY/KeDTh1b60P900AG72NIG+Y8GnUg+8aAGyN+6fg/dNCN8i8HoKWT/VP/ALpoT/Vr9BQAbvmPB6UFuDwaX+M/Sg/dP0oAQNwODRn5uh6Uo+6PpR/GPpQAbvY1HAf3K8Gpajg/1K0AOJ+YcGl3exoP3h+NLQAzHzDk9KXB/vGo/tEe4cnp/dNL9oj9T/3yaAHKPlHJoI+YcmmLcR7Ryf8Avk0G4j3Dk/8AfJoA5Oe58R6n4t1XTtN1e2sbaySEgSWfmli65PO4VONH8ZKMDxTZdc/8gsf/ABdLojBvH/iYjp5dr2/2K6qgDlf7J8Zf9DTY/wDgrH/xdH9k+M/+hpsv/BWP/i66qigDlf7J8Zf9DTY/+Csf/F0f2T4y/wChpsf/AAVj/wCLrqqKAOV/snxn/wBDTZf+Csf/ABdINH8ZAkjxTZc8n/iVj/4uurooA5X+yfGX/Q02P/grH/xdH9k+M/8AoabL/wAFY/8Ai66qigDlf7J8Zf8AQ02P/grH/wAXR/ZPjL/oabH/AMFY/wDi66qigDlf7J8Z/wDQ02X/AIKx/wDF0n9j+Mtxb/hKbLJGP+QWP/i66uigDlf7J8Zf9DTY/wDgrH/xdH9k+M/+hpsv/BWP/i66qigDlf7J8Zf9DTY/+Csf/F0f2T4y/wChpsf/AAVj/wCLrqqKAOV/snxl/wBDTY/+Csf/ABdJ/Y/jIsG/4SmyyOP+QWP/AIuurooA5X+yfGf/AENNl/4Kx/8AF0f2T4y/6Gmx/wDBWP8A4uuqooA5X+yfGX/Q02P/AIKx/wDF0f2T4z/6Gmy/8FY/+LrqqKAOV/snxl/0NNj/AOCsf/F0h0fxkSM+KbLg5H/ErH/xddXRQByv9k+M/wDoabL/AMFY/wDi6P7J8Zf9DTY/+Csf/F11VFAHK/2T4y/6Gmx/8FY/+Lo/snxn/wBDTZf+Csf/ABddVRQByv8AZPjL/oabH/wVj/4ukbR/GTDB8U2X/grH/wAXXV0UAcr/AGT4z/6Gmy/8FY/+Lo/snxl/0NNj/wCCsf8AxddVRQByv9k+Mv8AoabH/wAFY/8Ai6P7J8Z/9DTZf+Csf/F11VFAHK/2T4y/6Gmx/wDBWP8A4ug6R4yZSD4pssEY/wCQWP8A4uuqooA5X+yfGX/Q02X/AIKx/wDF0f2T4y/6Gmx/8FY/+LrqqKAOV/snxl/0NNj/AOCsf/F0f2T4y/6Gmx/8FY/+LrqqKAOV/snxl/0NNj/4Kx/8XR/ZPjP/AKGmy/8ABWP/AIuuqooA5RdH8ZKoA8U2WB/1Cx/8XS/2T4y/6Gmx/wDBWP8A4uuqooA5X+yfGf8A0NNl/wCCsf8AxdH9k+Mv+hpsf/BWP/i66qigDlf7J8Zf9DTY/wDgrH/xdH9k+M/+hpsv/BWP/i66qigDlBo/jJc48U2XXP8AyCx/8XS/2T4y/wChpsf/AAVj/wCLrqqKAOV/snxn/wBDTZf+Csf/ABdH9k+Mv+hpsf8AwVj/AOLrqqKAOV/snxl/0NNj/wCCsf8AxdH9k+M/+hpsv/BWP/i66qigDlBo/jIEkeKbLJ6/8Ssf/F0v9k+Mv+hpsf8AwVj/AOLrqqKAOV/snxn/ANDTZf8AgrH/AMXR/ZPjL/oabH/wVj/4uuqooA5X+yfGX/Q02P8A4Kx/8XR/ZPjP/oabL/wVj/4uuqooA5T+x/GW7d/wlNlnGP8AkFj/AOLpf7J8Zf8AQ02P/grH/wAXXVUUAcr/AGT4z/6Gmy/8FY/+Lo/snxl/0NNj/wCCsf8AxddVRQByv9k+Mv8AoabH/wAFY/8Ai6P7J8Zf9DTY/wDgrH/xddVRQByh0fxkWB/4SmyyP+oWP/i6X+yfGf8A0NNl/wCCsf8AxddVRQByv9k+Mv8AoabH/wAFY/8Ai6P7J8Zf9DTY/wDgrH/xddVRQByv9k+M/wDoabL/AMFY/wDi6P7J8Zf9DTY/+Csf/F11VFAHKHR/GRxnxTZcHP8AyCx/8XS/2T4z/wChpsv/AAVj/wCLrqqKAOV/snxl/wBDTY/+Csf/ABdH9k+Mv+hpsf8AwVj/AOLrqqKAOV/snxn/ANDTZf8AgrH/AMXR/ZPjL/oabH/wVj/4uuqooA5RtH8ZMMHxTZY/7BY/+Lpf7J8Z/wDQ02X/AIKx/wDF11VFAHK/2T4y/wChpsf/AAVj/wCLo/snxl/0NNj/AOCsf/F11VFAHK/2T4z/AOhpsv8AwVj/AOLo/snxl/0NNj/4Kx/8XXVUUAcqdI8ZEEHxTZYP/ULH/wAXVOebxPomsaJHe63a3lte3v2aSNLEREDy3bIbce6jtXbVy3i4hdW8KE9P7WH/AKJloA6bHzHk9KUjg/Maj+0R7jyen900puI8Hk/98mgB4HA+Y0mPm6npTRcR4HJ/75NJ9oj3dT0/umgCXb/tGo4B+5Xk0faI/U/98mmQzxiFRk/98mgCUj5hyadtP941EbiPcOT/AN8ml+0R+p/75NAEn8Y+lLTMHcPm7UuD/eNACr90UH7wpqg7R81BB3D5qAOZ0b/koPib/rna/wDoFdTXK6N/yUDxN/1ztf8A0CuqoAKKKKACiiuZGrXp+JLaR5w+wjTBceXtH3/MxnOM9O1F9Uv67h0udNRXM67q97ZeMfDOn28wS2vmuBcJsB37UBXkjI59Kn1Dxt4d0u+ks7vUlSaIgTFY3dIc9PMdQVT/AIERQBv0Vk6l4m0bSHt0vr+OJriNpIflZvMUFQduAcnLrgDk54zWefiD4X+xm6GqZQMyuiwSmWMrjO+MLvUDIySABmgDpqKyr3xLo2n6VBqdzqEK2dxt8iRcv5uegQLksT6AE1JpGu6Zr0Ekum3QmEbbJEKsjxt6MjAMp+oFAGjRRRQAUUUUAFFFFABRRRQAUUVzHiHW9QXXLDw5ovkpqF5G88lzMm9LaBSAW2gjcxJAAzj1o8gOnorkR/wlGg6rYie9k13TrqXyZybVI5bYno42AApnrkZHrV/U/Gvh/SLuS1vL8iaIAzLDBJN5IPTeUUhP+BYoA36K43xD45tdLvvDy20xmtdSly0sNtJMGi2nBUoCM5xx1rV1PxjoWj3Jtry9bzwgd4obeSZo1PQuEUlR7tigDdorlNW8SF5vCs+j3sctlqeoeU8iAMJI/JkbAJHHKjpg8Vd1Pxn4f0i9ezvdRVJ4wDKEieQQg9DIyghB/vEUAb1FZmp+ItI0iwhvb2+jS3nIELIDIZieQEVQS5PsDUWk+KdF126ltdNvlnnhjEksYRlKAnA3ZAweOh5HpQHmbFFFFABRRRQAUUUUAFFFFABRRRQAUUVyPi3XNQtdZ0fQtOu7fT5dTMmb6eMOIwgB2opIBc54z78GgDrqK5PTZPE2keIrfTdTuW1nT7qJ2W+W1ET27r/DJs+XBHQ4HNXL3xt4c0/UHsrnU0SaNgkpEbtHEx6B3AKofZiKAOgorH1XxVouizxwX975c0sfmxxpE8jSLnHyhQS30HPerGl61p+spcNYTmQW8phmDRshRwAcEMAehB/GgDQormofEVnqmtaM+n64Pst3HcFLX7I3+lbCAWDkDaFOf97PGalk8b+G4tTOnvqkYnWQQswRjGsn9xpANgb2JzQB0FFYur+LND0O5W2v77ZcMu/yoonldV/vMEBKr7nAqW68S6NZ6VDqc2oQ/Y58eTJHmTzSegQLksfYAmjzA1aKzdH1/S9fhlk026E3lNslRkaN429GRgGU/UVpUAFFFFABRRRQAUUUUAFFFFABRRXE2Goa74ymvLnTNUGkaTbztbwSR26SzXDIcMxLgqq54AAzx1oA7aiud0DUdXR9RsvEEahrFgU1BY/LiuIiM7uTgMOjDOKk07xp4e1W+Sys9RV5pM+VuidFmx18tmAV/wDgJNAG9RXPXvjjw5p8txFcajiS3kMcyJBJI0ZGCSwVTheR8x496zvFPji20U+HntZvOt9Tu0DSw28k4aDBJKlARk/LxySCcDjIFra3X9Q7+V/wOyorB1LxloOkz+Rd3r+cEEjRw28kzRqehcIpKD/exVqTxJo0OiJrT6lbjTnAKXG/KtnoB3Jzxgc0AalFcjq3j3S4/Cerarpdz509lEf3T20odHIyu+MqGAPqQB71t+H9Wj1vQ7S/iMhEsYLb4XiO7v8AKwBxn2osBp0Vy/hrWL7UPE/iqzupg8FhdxxW67ANimJWIyBk8k9aG1q9T4kT6UZN1hHowuxCEGfM80rnOM9BjGcUr7eev4XDv5f52OoorzrRL3xZ4s0QeIdP8R2lsXLtFpi2aSRpgkBJGJ37uOcEYz0rs9A1C61XQrS9vbGSxupU/e28gIKMDgjnnHGR7Yp2A0qKKKACiiigAooooAKKKKACiiigAooooAK5bxb/AMhfwn/2Fh/6Ilrqa5bxb/yF/Cf/AGFh/wCiZaAOo/jP0oP3TSYO4/N2oIOD8xoAUdBR/H+FIAcD5jSYO773agB9Rwf6lafg/wB41HAD5K/MaAJD94fjS0wg7h81Owf7xoATcNw57Uu4etH8Y+lLQA1WG0c0FhuHNKv3RQfvCgDltG/5KB4m/wCudr/6BXVVy2jf8lB8Tf8AXO1/9ArqaACiiigArzrWPD+k+Ivi0LfWLCG8hj0cOiSjIDebjNei1D9lt/tf2v7PF9p2eX52wb9uc7d3XGe1K2qf9bNB0a/rc85vfCuheG/iL4SfRtLt7JpmuRIYVxuAjGM/nUng/VNJ0jwdq1prlzbwXlvc3R1GOcgM5Z2O4g8sGUjHrwK9CktLaaeGeW3ieaHPlSMgLR54O09Rn2qC40fTLy8ivLnTrSe6i/1c0sCs6fRiMih6qwLR3PNPCtjPHffDiPUI3W4g0u8dUkHzICIwoOehCsBXQ+HoIh418dyCNd7S26scckeQOP1Ndk9tA9zHcPBG08QKxylAWQHGQD1GcDP0pI7W3ilmljt4kknIMrqgBkIGBuPfjjmqk73+f4u4LSx4vYreW6eBLmLUbbTbVbe6hjubq286JJi52gjeuCVBAOfaut8KJJP8QdWupNbi1OeO0jguHtLHyYA2SVBbzX3OB2xwK7dtNsGsDYNZWxsyMG3MS+XjrjbjFOsrGz062W2sbWC1gX7sUEYRR9AOKL6/f+IulvT8CxRRRSGFFFFABRRRQAUUUUAFcJrzw+HviZpniK+bytOurB9NkuG4SGTeHTcewb5hk8ZxXd0yWKOeJopo0kjcYZHUEMPQg0bNNf10H0aOf1PxhZWuo6fpun+XqV/ezBRBBKCY4/4pGIzhQPXrXLNr9zd3PiJotV0jw9aWd00M0RtBJczkKPnYlgPm6D5WzXf6fo+maSHGm6dZ2Yc5cW0Cx7j77QM0smkabLqKahJp1o96gwly0KmRR7NjIpNX/r0/r5gmeWaBcRReGPh3NJKEiF5IC8mFAJD4z2B9q2n166ufEniCC21LR/DsFhKizyzWokuLn5QfMyXUBccAkN0ruJNH0uax+wy6bZvabt/kNApj3ZznbjGc80TaPpdxdw3c+m2ctzAMRTPArPH/ALrEZH4U3q2/66f5ErT+vU8m8MSCTw74IYOz/wDFR3XzMoUni46gYwfauk8Ianpmj6d4itdZube2vodSupr0XDBWdGYsj8/eUoVAPtiu4XTLBChWxtl2SmdMRKNshzlxxwxycnryaZd6Ppl/cxXF5p1pcTw/6uWaBXZPoSMijv5/8D/IfW/9df8AM8q8JZ0i98GXWrn7NYvaXkdmbg7Vjd5d0a8/dJi4H5V0Xhy90+++LniSXTpI5VWxt0meMggyAtnkdTjFdD4m0rVNSSH7BJp80K7lnsNRh3wXAPTJAJUgj0I9qh8MeGp9Ju7zUb1rQXd0kcQgso9kEEaZ2onc9Sc4H0px3v6/iKS09bfgdLRRRSGFFFFABRRRQAUUUUAFFFFABXG+M77Qmv7HRfFWmW8mj3qMVvblsRxzDohOPlJBOGyOmK7Ko7i3gu4HguYY5oXGGjkUMrD3B60mho8w021sfD3jbSdP8Ha1cXVncCQXumm7NzDbxhflkGSShzgdeax9FmvLHwZrFvfeKNLsUhmuFvrO50zzJ9zMc5JmXeWBGDjnIr2DT9K07SYmi06wtbONjkpbwrGCfooFNuNH0y7vYr2502zmu4v9XPJArOn0YjIptXVmJaO5wfhyy+z+LPC8czTSyweHnVXnj8t+XTquTg47ZNR+Mbq58MeINRWxDCTxNaLb220cLeBhED/3w4b/ALZmvSDbQG6FyYIzcKhQSlBuCk5xnrj2pJrS2uXhee3ileF/MiZ0DGNsY3LnocE8j1oeu/n+Lf8An94K6vby/BL/ACOCvNMj0jxv4M0uyG1LbTLyGL/gKRgGqXh7U/D9l8JlsNcCSvDvgvbENiaSfzDlQuQSxPI9c5r0p7W3kuYrl7eJriIFY5WQFkB6gHqM4GahfSdNfUV1F9PtGvlGFuTCpkA9mxmndvf+tW/1Elbb+tDzPT31Kz8a+JgNfsNGklaKdI9QsvNZ4BGACG81eAcgjnBqlYWtiPDmkTf25eWcs2q3Eun6qLFIoInbOQY2dh5bc7eefavWb/SdN1URjUdPtLwRncguIVk2n1G4HFTT2drdWjWtxbQy2zLtMMiBkI9MHjFIZx3g7VL6fxNrOm350u9nt44mbVNPh8vzs5ASQZPzADPB6Gu3qvZWFnptsttYWkFrAvSKCMIo/ADFWKbAKKKKQBRRRQAUUUUAFFFFACMNylfUYrgvAWoWmg2l74Z1K5itb+xupXCTME82J2LLIueowe3TFd9VLUNI0zVlRdS060vFQ5UXMCyBT7bgaNncNzhPFPiB/FfhTxNbaNayXFlZiNTdxNuW5wwaVEAHOFBBIPPSn+LtU0rVvD/h+10e5gnvJtQtHskgYFkCuC7YH3QEDA/XFehRQxW8KxQxpHEgwqIoAUegAqra6PpljdS3Vpp1pb3E3+sligVHf6kDJoW/3P7v6+QP/P8AE5jwZDH/AGv40k2LvfWGVjjqBDHgfqfzrkdImVPh/wDDqaV1SOPVlBdjgKP3oGT27CvXYbW3t2laGCKNpn8yUogBdsAbmx1OABk+lV30fTJNOGnPp1o1iP8Al2MCmLrn7uMdeelEdEvLl/AHrzed/wAbnDSa9c3XiLxBFbano/h+CxkRZ5JbUSXF0NgIkyWUBcHAJDdPwrmdBnij0PwdqF1JnTINXuvPmlUKquxYRsw6LyfwzXr0mi6VNdQXUumWb3FuAsMrQKXjA6BTjI/CplsLNbeW3W0gEMxLSRiMbXJ6kjGCT3zQtNf6/r8gev8AXkcN4svtEvrfxOthEbjUo9Gdbi6hbdGqYJWNiDjd1OMZxXX+H54rjw9p0kEqSIbdMMjAj7oqxZ6bYafam1srK2trc5zFDEqJz14AxTrKws9Ntxb2NpBawAlhHBGEXJOScDjmhaK39df8wev9en+RxOj6hZeH/iH4ptNUuY7R9Qkhu7Vp2CLMnlBW2k8EhlORSabfprHxJ1nWdIKX1rZaSlmJI3+SSfez7A3IyBjPpmu0v9L0/VYRDqNjbXkQOQlxCsig/RgamtrW3srdLe1giggQYWOJAqr9AOBSWy8v8rfkHfz/AM7/AJnla2Xw88R2Ta/JcJ4c1oqTdta3xtp7aX+IMAQCc55K812fgC81K/8AB1nPqkjzTEuqTyLtaaMMQjsOxK4Na1zoWkXl4t5daVYz3Sfdnlt0Z1+jEZrQprQHqwooooAKKKKACiiigAooooAKKKKACiiigArlvFv/ACF/Cf8A2Fh/6Jlrqa5bxb/yF/Cf/YWH/oiWgDp9w3HntQWGDzS/xn6UH7p+lACBhgc0bhv69qUfdH0o/j/CgA3D1qOBh5K81LUcH+pWgBxYbhzS7h60H7w/GloAZhtw5HT0pcN6j8qb50W4fvE6f3hS+dF/z0T/AL6FAAoO0c/pQQ24cj8qRZoto/eJ/wB9CgzRbh+8T/voUAczo3/JQPE3/XO1/wDQK6quQ0u6t4fH/iRpZ4o1ZLbBdwM/JXS/2lYf8/tt/wB/V/xoAtUVV/tKw/5/bb/v6v8AjR/aVh/z+23/AH9X/GgC1RVX+0rD/n9tv+/q/wCNH9pWH/P7bf8Af1f8aALVFVf7SsP+f22/7+r/AI0f2lYf8/tt/wB/V/xoAtUVV/tKw/5/bb/v6v8AjR/aVh/z+23/AH9X/GgC1RVX+0rD/n9tv+/q/wCNH9pWH/P7bf8Af1f8aALVFVf7SsP+f22/7+r/AI0f2lYf8/tt/wB/V/xoAtUVV/tKw/5/bb/v6v8AjR/aVh/z+23/AH9X/GgC1RVX+0rD/n9tv+/q/wCNH9pWH/P7bf8Af1f8aALVFVf7SsP+f22/7+r/AI0f2lYf8/tt/wB/V/xoAtUVV/tKw/5/bb/v6v8AjR/aVh/z+23/AH9X/GgC1RVX+0rD/n9tv+/q/wCNH9pWH/P7bf8Af1f8aALVFVf7SsP+f22/7+r/AI0f2lYf8/tt/wB/V/xoAtUVV/tKw/5/bb/v6v8AjR/aVh/z+23/AH9X/GgC1RVX+0rD/n9tv+/q/wCNH9pWH/P7bf8Af1f8aALVFVf7SsP+f22/7+r/AI0f2lYf8/tt/wB/V/xoAtUVV/tKw/5/bb/v6v8AjR/aVh/z+23/AH9X/GgC1RVX+0rD/n9tv+/q/wCNH9pWH/P7bf8Af1f8aALVFVf7SsP+f22/7+r/AI0f2lYf8/tt/wB/V/xoAtUVV/tKw/5/bb/v6v8AjR/aVh/z+23/AH9X/GgC1RVX+0rD/n9tv+/q/wCNH9pWH/P7bf8Af1f8aALVFVf7SsP+f22/7+r/AI0f2lYf8/tt/wB/V/xoAtUVV/tKw/5/bb/v6v8AjR/aVh/z+23/AH9X/GgC1RVX+0rD/n9tv+/q/wCNH9pWH/P7bf8Af1f8aALVFVf7SsP+f22/7+r/AI0f2lYf8/tt/wB/V/xoAtUVV/tKw/5/bb/v6v8AjR/aVh/z+23/AH9X/GgC1RVX+0rD/n9tv+/q/wCNH9pWH/P7bf8Af1f8aALVFVf7SsP+f22/7+r/AI0f2lYf8/tt/wB/V/xoAtUVV/tKw/5/bb/v6v8AjR/aVh/z+23/AH9X/GgC1RVX+0rD/n9tv+/q/wCNH9pWH/P7bf8Af1f8aALVFVf7SsP+f22/7+r/AI0f2lYf8/tt/wB/V/xoAtUVV/tKw/5/bb/v6v8AjR/aVh/z+23/AH9X/GgC1RVX+0rD/n9tv+/q/wCNH9pWH/P7bf8Af1f8aALVFVf7SsP+f22/7+r/AI0f2lYf8/tt/wB/V/xoAtUVV/tKw/5/bb/v6v8AjR/aVh/z+23/AH9X/GgC1RVX+0rD/n9tv+/q/wCNH9pWH/P7bf8Af1f8aALVFVf7SsP+f22/7+r/AI0f2lYf8/tt/wB/V/xoAtUVV/tKw/5/bb/v6v8AjR/aVh/z+23/AH9X/GgC1RVX+0rD/n9tv+/q/wCNH9pWH/P7bf8Af1f8aALVFVf7SsP+f22/7+r/AI0f2lYf8/tt/wB/V/xoAtUVV/tKw/5/bb/v6v8AjR/aVh/z+23/AH9X/GgC1RVX+0rD/n9tv+/q/wCNH9pWH/P7bf8Af1f8aALVFVf7SsP+f22/7+r/AI0f2lYf8/tt/wB/V/xoAtVy3i3/AJC/hP8A7Cw/9Ey1v/2lYf8AP7bf9/V/xrmvFN5azax4UEVzDIRqwyFkBx+5loA6zDbjyOnpSkNg8j8qb50W4/vE6f3hQZosH94n/fQoAcA2ByPypMNu6jp6UgmiwP3if99Cjzot/wDrE6f3hQA/Deo/Ko4A3krz+lO86L/non/fQqOGWMQrmRP++hQBIQ24cj8qdhvUflTDNFuH7xP++hS+dF/z0T/voUAGxd4+UdPSl2L/AHR+VJ824dOlL83qPyoARUXaPlH5UFF3D5R+VC7to6UHduHSgDLvvC2haldtdXuk2k87ABpJIwScDA5+lVIvBPhgqc6FYfeYf6ketdD83qKjh3bW5H32/maAMQ+CPC+R/wASGw6/88RS/wDCEeF/+gDYf9+RW4d2R06075vUUAYC+CPC5z/xIbDr/wA8RQfBHhfj/iQ2HX/niK3V3YPTrQ27jp1oAw/+EI8L/wDQBsP+/IpieCfDBeQf2FYcN/zxHoK6H5vUVGm7zJeR94fyFAGI3gjwuB/yAbDr/wA8RS/8IR4X/wCgDYf9+RW427HbrTvm9RQBgDwR4Xyf+JDYf9+RQ3gjwuB/yAbD/vyK3RuyelDbtvagDD/4Qjwv/wBAGw/78imDwT4Y89h/YVhjaD/qR6muh+b1FRjd9obkfcH8zQBiN4I8LhT/AMSGw6f88RS/8IR4X/6ANh/35Fbrbtp6dKX5vUUAYH/CEeF92P7BsOn/ADxFB8EeF8H/AIkNh/35Fbvzb+3SlO7B5FAGEPBHhfA/4kNh/wB+RTG8E+GPOQf2FYYIP/LEe1dAN2ByKY27z05H3W/pQBi/8IR4X/6ANh/35FIvgjwuVH/EhsOn/PEVv/N6ikXdtHTpQBgnwR4X3Af2DYf9+RS/8IR4X/6ANh/35Fbh3bh0p3zeooAwF8EeFyP+QDYf9+RTZPBPhgNHjQrDlsf6kehroF3bR0pkm7dHyPv/ANDQBi/8IR4X/wCgDYf9+RSL4I8Lkf8AIBsOv/PEVv8Azeopq7sdutAGEfBHhcY/4kNh1/54il/4Qjwv/wBAGw/78itxt3HTrTvm9RQBgDwR4X5/4kNh1/54imy+CfDAjyNCsOo/5Yj1rfXdz0602bd5fUdR/MUAYv8AwhHhf/oA2H/fkUg8EeF8n/iQ2HX/AJ4it/5vUflTRuyenWgDCbwR4XA/5ANh/wB+RS/8IR4X/wCgDYf9+RW427b2p3zeo/KgDAHgjwvuP/EhsP8AvyKSXwT4YETkaFYZCn/liK3hu3HpSS7vJfkfdNAGGPBHhcqP+JDYdP8AniKP+EI8L7iP7BsOn/PEVvLu2jkdPSk+bcenSgDCPgjwvg/8SGw/78ilHgjwvgf8SGw/78it07tp6UDdgcigDB/4Qjwvux/YNh0/54il/wCEI8L/APQBsP8AvyK3Pm3dulO+b1H5UAc9D4J8MNChOhWGSP8AniKd/wAIR4X3Af2DYdP+eIrbg3eQnI6U75tw6dKAMP8A4Qjwv/0AbD/vyKRfBHhcqP8AiQ2H/fkVv/N6imru2jpQBhHwR4XyP+JDYf8AfkUv/CEeF/8AoA2H/fkVuHduHSnfN6igDno/BPhghs6FYfeI/wBSPWnHwR4XyP8AiQ2HX/niK24t2G5H3z/OnHdkdOtAGH/whHhf/oA2H/fkUi+CPC5z/wASGw6/88RW/wDN6imru56daAMI+CPC/H/EhsOv/PEUv/CEeF/+gDYf9+RW627jp1pfm9RQBzyeCfDBkkH9hWHBH/LEelObwR4XA/5ANh1/54ittN3my8jqP5U5t2O3WgDD/wCEI8L/APQBsP8AvyKQeCPC+T/xIbD/AL8it/5vUU0btx6UAYTeCPC4U/8AEhsP+/Ipf+EI8L/9AGw/78itxt209Kd83qKAOe/4Qnwx55H9hWGNoP8AqR605vBHhcKf+JDYdP8AniK2/m+0HkfcH86e27aenSgDC/4Qjwv/ANAGw/78ik/4Qjwvux/YNh0/54it75vUUnzbu3SgDDPgjwvj/kA2H/fkUg8EeF8D/iQ2H/fkVvHdg8igbto5HSgDn28E+GBKg/sKwwQf+WIp/wDwhHhf/oA2H/fkVtNu86PkdD/SpPm9RQBgL4I8LlR/xIbD/vyKD4I8L7h/xIbD/vyK3l3bR0pDu3DpQBh/8IR4X/6ANh/35FIvgjwuR/yAbD/vyK3/AJvUU1d23tQBgSeCfDAKY0Kw5bH+pFP/AOEI8L/9AGw/78itqXdmPkffFSfN6igDAHgjwvj/AJANh1/54ig+CPC4x/xIbDr/AM8RW8u7B6daRt3HTrQBh/8ACEeF/wDoA2H/AH5FIPBHhfn/AIkNh1/54it/5vUU0buenWgDAl8E+GFjJGhWHb/liPWn/wDCEeF/+gDYf9+RW1Nu8o8jt/OpPm9R+VAGAPBHhfJ/4kNh/wB+RQ3gjwuFP/EhsP8AvyK3huyelI27aelAGH/whHhf/oA2H/fkUg8EeF9x/wCJDYf9+RW/83qKQbtx6UAYD+CPC4jY/wBhWHQ/8sRU1l4T8P2VxDd22j2cVxF8ySJEAVOMZB+hNa8m7yn5HQ0qbti8joKADYu4/KOnpSlFwflH5UfNuPTpQd2DyKAAIuB8o/Kk2Lv+6OnpSjdgcik+bd26UALsX+6PypkCL5K/KPyqT5vUflUcG7yV5FADii7h8o/Kl2L/AHR+VId24dKd83qKAEyN457UuR6ikwN44HSlwPQUAIpG0c0EjcOaFA2jiggbhwKAFyPUUyEja3I++38zT8D0FMhA2twPvt/M0AOJGV570uR6ikIGV4HWlwPQUAIpGDz3oYjjnvQoGDx3oYDjgdaAFyPUUyMjzJeR94fyFPwPQUyMDzJeB94fyFADmIx17ilyPUUjAY6DqKXA9BQAgI3NzQxG3rQANzcUMBt6CgBcj1FMBH2huR9wfzNPwPQUwAfaG4H3B/M0AOYjaee1LkeopGA2njtS4HoKAEyN/XtSkjB5FJgb+nalIGDwKAAEYHIpjEeenI+639KeAMDgUxgPPTgfdb+lAD8j1FIpG0c9qXA9BSKBtHHagAJG4c0pdR1YD8aQgbhxXGeI9Ls9Y8eaNZX0TS25s52KCRk5BXB+UigDslkTaPnX86ZI6bo/nX7/AK+xrnv+FeeF/wDoGv8A+BU3/wAXSf8ACvPC3/QNb/wKm/8Ai6AOm8xP76/nSK6Y++vU965v/hXnhf8A6Br/APgVN/8AF0f8K88L/wDQNf8A8Cpv/i6AOkZ04+devrS+Yn99fzrmv+FeeF/+ga//AIFTf/F0f8K88L/9A1//AAKm/wDi6AOkV05+devrTJnTy/vr1Hf3Fc9/wrzwv/0DX/8AAqb/AOLpP+FeeFv+ga3/AIFTf/F0AdN5if31/OkDplvnXr61zf8Awrzwv/0DX/8AAqb/AOLo/wCFeeF/+ga//gVN/wDF0AdIzpt++v50vmJ/fX865r/hXnhf/oGv/wCBU3/xdH/CvPC//QNf/wACpv8A4ugDpA6bj86/nTZZE8l/nX7p7+1c7/wrzwv/ANA1/wDwKm/+Lo/4V54X/wCga3/gVN/8XQB0iyJtHzr09aN6bj869PWub/4V54X/AOga/wD4FTf/ABdH/CvPC/8A0DX/APAqb/4ugDpDIm0/Ov50CRMD51/Oub/4V54X/wCga/8A4FTf/F0f8K88L/8AQNf/AMCpv/i6AOk3pv8Avr09aXzE/vr+dc1/wrzwv/0DX/8AAqb/AOLo/wCFeeF/+ga//gVN/wDF0AdDBInkJ869PWn703D516etc1/wrzwt/wBA1v8AwKm/+Lpf+FeeF/8AoGv/AOBU3/xdAHS+Yn99fzpFdNo+dfzrm/8AhXnhf/oGv/4FTf8AxdH/AArzwv8A9A1//Aqb/wCLoA6Qum4fOv50vmJ/fX865r/hXnhf/oGv/wCBU3/xdH/CvPC//QNf/wACpv8A4ugDoYnTDfOv3z396eXTK/OvX1rmv+FeeFv+ga3/AIFTf/F0v/CvPC//AEDX/wDAqb/4ugDpfMT++v50iunPzr19a5v/AIV54X/6Br/+BU3/AMXR/wAK88L/APQNf/wKm/8Ai6AOkaROPnXr60vmJ/fX865r/hXnhf8A6Br/APgVN/8AF0f8K88L/wDQNf8A8Cpv/i6AOhR082X516jv7U9nTH316+tc1/wrzwt/0DW/8Cpv/i6X/hXnhf8A6Br/APgVN/8AF0AdL5if31/OkDpuPzr+dc3/AMK88L/9A1//AAKm/wDi6P8AhXnhf/oGv/4FTf8AxdAHSM6bT86/nS+Yn99fzrmv+FeeF/8AoGv/AOBU3/xdH/CvPC//AEDX/wDAqb/4ugDod6faD86/cHf3p7Om0/OvT1rmv+FeeFv+ga3/AIFTf/F0v/CvPC//AEDX/wDAqb/4ugDpQ6nowP40ZG/r2ribDQ9P0L4lWkGmwtDFNpFw8iGV3DMJoAD8xPqfzrtsDf0HSgBSRg8ihSNo5HSggYPAoUDaOB0oAjYjz4+ex/pUmR6io2A8+Pjsf6VJgegoARSNo5oJG4c0KBtHAoIG4cCgBcj1FIpG3rS4HoKRQNvSgBkpGY+f4xUmR6io5QMx8fxipMD0FACKRg896GI4570KBg8DrQwHHHegBcj1FIpHPPelwPQUigc8DrQAycjyjyO386kyPUVHOB5R4Hb+dSYHoKAEBGW5oYjaeaABluBQwG08UALkeopARuPNLgegpABuPAoASQjyn5H3TSoR5a8joKSQDyn4HQ0qAeWvA6CgAyN557UpIweRSYG88DpSkDB4FAACMDkUmRv69qUAYHApMDf0HSgBcj1FRwEeSvNSYHoKjgA8leBQA8kbhzS5HqKQgbhwKXA9BQA35tw4HSl+b0FL/GPpS0AMXdtHAoO7cOBTl+6KD94UAHzegqOHdtbgffb+ZqWo4fuN/vt/M0AKd2RwOtO+b0FB6r9aWgBi7sHgdaG3ccDrTl6H60N2+tAB83oKjTd5kvA+8P5Cpajj/wBZL/vD+QoAVt2Og6075vQUN0/EUtADBuyeBQ27b0FOH3mob7poAPm9BUY3faG4H3B/M1LUY/4+G/3B/M0AObdtPA6Uvzegob7p+lLQAz5t/QdKU7sHgUfx/hSnoaAEG7A4FMbd56cD7rf0qQdBTG/16f7rf0oAf83oKRd20cDpTqRfuj6UANO7cOBXMahn/hZWi5/58bj+a11B+8K5jUP+SlaL/wBeNx/NaAOpooooAKKKKACiiigAooooAKKKKACuX8RfEHw14XuRaajf5uyAfs0CGWQD1Kr0rqK8Q8M+ItH8DeM/Edt4yga11K8vmmg1CaEuskP8IDYOABjp/Sl1sPpc9J8OfEDw34puGtdNvwbtRk20yGOTHrtbmumrzvWtE0Tx7daTrHhnWLCLUrC4WYXMGGdo+6sBg8+9bnjHxnD4UgtIUtJb/VL5/KtLKH70rdznsB603t5i6nUUV5xJ498S+HZLe48YeG4LPSp3VDeWdx5otyx48wenuK6Hxf4yh8LWNm8dnNqF7fyiCztYOsrH36AdOfegDpqK8y1Tx3408MWw1PxD4UtF0kMBK9nd75IQTgEgj3rX8b+Pv+ET03RNRt7QXltqFwkZAzv2Mu4FR69OtAHbUVx9h4m12ysNR1TxbpNtpWn28PnxtFcea+P7rD+99O9YkXjrxtf6cdc07wbE2j7fMRJrrbcyR/3lXGOnajYNztPEHiTTfDFpBdanJIkU9wluhRCxLtnHT6Vrg5Ga8a+Jviix8QfDDQtftllW3bVYHeNl+dCu7cuPUYNbOo+PPGOm6c2vS+DkXQo1DurXQ+1LH/eK9Bxzija9+j/RBva3Vfqz0ysvxD4g0/wvo02ram7paQlQ7IhY8nA4Huas6VqVvrGk2mpWjFre6iWaMkYO1hkZriPjYcfC3Uiem+L/ANGLSleJUEpNCD40+ECobdqYXGd32CTGPyrr9B8RaT4m08X2j3sd1BnaSh5U+hHUGuQ0r4n+AodEsYJ9eshIltGjqUY4IUAj7tZ/wxhj1Dxh4n8SaTF5OgXrrHbgDaJXX7zhew/xq7e80Z391M9TorgLzxzrepa9f6R4Q0KO/bT38u5u7ubyoVf+6O5NTeF/HOoX/iefwv4i0cabrEcH2hPKl8yKaPOMqf8APepWpT0O5orzab4ha/d+MNc8M6HoMF3e2EibJJJjHGIyoJLn1yQABXfaXLez6XbS6jbpbXjoDNCj7lRu4B70LVXDrYt0UUUAFFFFABRRRQAUUUUAFFFFAHL3Of8AhaOnY/6A11/6Ogrpfm39B0rm7j/kqWn/APYFuv8A0dBXTfx/hQAh3YPAoG7aOBTj0NIv3R9KAI23edHwOhqT5vQUxv8AXx/Q/wBKkoAau7aOBSHduHApy/dH0oP3hQAfN6Cmru29BT6Rfu0ARy7sx8D74qT5vQUyXrH/AL4qSgBi7sHgdaG3ccDrTl6H6mhu31oAPm9BTRu54HWn0i9/rQBHNu8o8Dt/OpPm9BTJ/wDVH6j+dSUAMG7J4FDbtp4FOHVvrQ33TQAfN6CmjduPAp9IPvGgBkm7yn4H3TSpu2LwOgpZP9U/0NCf6tfoKAE+bceB0pTuweBS/wAR+lB6GgBBuwOBSfNu6DpTh0FH8f4UAHzegqODd5K8Cpajg/1K0AKd24cCnfN6Cg/eFLQBD9nh3D92vSl+zw/881p2TuHHb1pct6D86AI1t4do/drQbeHcP3a09Sdo4/Wgk7hx+tADfs8P/PNaZFbxFTmMfeb+dT5b+6PzqOEttbgffbv7mgBDbw5H7tetL9nh/wCea04k5HHf1p2W/uj86AIlt4ef3a9aGt4eP3a9aepODx39aGJ447+tADfs8P8AzzWmJbxGST92OGH8hU+W/uj86jQt5kvA+8O/sKAEa3hx/q16il+zw/8APNacxbHTv607Lf3R+dAEQt4dx/drQ1vDt/1a08E5PH60MTt6frQA37PD/wA81pgt4vPYeWMbR/M1Plv7o/OowW+0NwPuDv7mgBGt4dp/dr0pfs8P/PNaexbaeO3rS5b+6PzoAi+zw7/9WvSlNvDg/u1p2Tv6dvWlJbB4H50AMFvDgfu1pjW8XnIPLHQ/0qYFsDgfnTGLeenA+63f6UAH2eH/AJ5rSLbw7R+7XpUmW/uj86FLbRx29aAIzbw7h+7Wuavo0T4k6LtUD/Qbjp9VrqCTuHH61zGoZ/4WVouR/wAuNx/NaAOqooooAKKKKACiiigAooooAKKKKAGuxWNmC7iASB61x/hvX9E+JGk3S3emQ+bbTNBcWN0FkeMg9+Oh/pXZVxWv/C7w/ruqNqsZvNM1J+Xu9Om8p2PqRyCffFLrqPocT8SvBmh+DLK28S+GgdJ1eO6jSGK3kKrPk8rt/wAKk8bw6vP8V/Cc1vqMOlXM9gyQ3E8AlRZeSybTgZOa6/RvhXoWl6rHql5cahrF9CcxTanceaYz6gYAz+Fb/iTwtpHizThY6vbebGrb43Virxt/eVhyDT2S9f0sLf7jzzxj4d8Vv4WvIvE3xA02LSZQqTM+lKv8Qxgg5znHSr+teItR0Gz8IeF9FW0vdY1CAJDe3aFY0VEGXwecnqBV+3+Eujm7gm1XVda1qK3YNBbald+ZFGR0+UAZ/HNbfivwTpHjC2to9QWaKa1bfbXNs+yWE/7J/Acewo6fMDzX4l6V4ssvAWo3XiHxnFNBhVW0trNYVlYsPlJ5JH+FaHjDy7jQPhr/ABRve2n4jyxW9J8I9EvbOeHV9R1fV55ImijudQuvNeAHugI2g++K17vwNYXmneH7Ka7uymhyxy27gpukKDAD/LjGPTFNafen9wnr9zX3mR8Zop5fhnqJhUsqPG8oHeMMM11ujXdpL4bsbqGRPsn2VHDgjaF2jvV64t4bq3kt7iJJYZFKOjjIYHqCK4Bvg9ooD20Gra5baTI259LhviLdvUYxnH41KvZruU7Oz7HPfETXtM8T/D/Rr/S43Fm2uwxjzI9m4gsCQPSvQ/G//JPtf/7Bs/8A6LNQ6z4E0jV9A0/RQJbKysJ454UtdowUzgHIPHPPetrVtMi1fRrzS53dIbuB4HZCNwVhgkZGM80TV4yS/rRDg7TjJ9P82YHww/5Jl4d/68krK+Nn/JLdS/34f/Ri12GgaNB4e0Gy0i1klkgtIhEjykFiB64AH6VW8V+GbTxd4en0a9mnhgmKlngIDjaQRjII7elOp7zbXcml7trkGi+H9Gl8P6cZNKsmLWsW4mBefkHtXCaHb23h/wCO93pGg4i02ew868tYv9XFJ2IHQE/1rVT4RRxxrGvjXxaI1AUKL9QAPT7ldJ4V8D6J4PSc6ZDI1xcHM9zPIZJZPqx/kKpu8+b1/ElK0eX0OO0rXvF3jq+1OXwzd6bomlWty0AlkthNNMw6ll6CsvQre9sP2gIrXU9dbV7waO3mSGNUEbFs7Ao6DHP411t58K9Kl1i51LTdV1nRpLpt1zHpt35SSnuSMHH4Yqzpfwz0HRPENjrWm/abe5tonjf94H+0b+pkLAsx98jtUx0t/XQqet7f1qY/gVR/wtf4iPj5hNaDP/AGr0qsPSPC1no3iHW9agmne41d43nSQjYhQEDbgA9+5NblPol2S/IH8TfmFFFFIAooooAKKKKACiiigAooooA5a7RX+KOnBgCP7Guev/XaCuj+zw7/APVr0rnbnP8AwtHTsD/mDXX/AKOgrpctu6Dp60ANNvDg/u1pBbw7R+7XpUhLYPA/OgFto4HT1oAha3i86MeWOhp/2eH/AJ5rQxPnR8Doe/0qTLf3R+dAES28O0fu1oNvDuH7takUttHH60hJ3Dj9aAG/Z4f+ea0i28O3/VrUuW/uj86apbb0/WgCKS3iBTEY+8Kf9nh/55rRKTmPgffHepMt/dH50ARLbw4P7tetDW8PH7tetSKWweO/rSMTxx39aAG/Z4f+ea0gt4ef3a9aly390fnTQTzx39aAIpreIRHEY7fzp/2eH/nmtExbyjwO3f3qTLeg/OgCIW8OT+7WhreHaf3a1IC2Tx+tIxO08frQA37PD/zzWkFvDuP7taly390fnSAtuPH60ARSW8Qjb92OhpUt4Si/u16CnSFvKfgdD3pULbF4HQd6AGfZ4dx/dr0pTbw4P7tafltx47etBLYPA/OgBgt4cD92tJ9nh3/6telSAtgcD86TJ3dO3rQA37PD/wA81pkNvEYVJjFT5b0H51HAW8leB+dACG3h3D92tL9nh/55rTiTuHH607Lf3R+dAAfvj6Uvam7RuHHal2j0oAF+6KD94UiqNo4oKjcOKAHVHD9xv99v5mn7R6VHCo2tx/G38zQBIeq/WlppUZHHel2j0oAReh+tK3b601VGDx3pWUccd6AHVHH/AKyX/eH8hT9o9KjRR5kvH8Q/kKAJG6fiKWmsox070u0elACD7zUrfdNNCjJ4pWUbelADqjH/AB8N/uD+Zp+0elRhR9obj+AfzNAEjfdP0paayjaeO1LtHpQAn8f4Up+6fpTdo39O1KVGDxQAo6CmN/r0/wB1v6U4KMDimMo89OP4W/pQBLSL90fSjaPSkVRtHHagAP3xXMah/wAlK0X/AK8bj+a10xUbhxWNrPhe31m+t7xr6/s7i3Ro0e0lCHaxBIJIPpQBuUVyw8F5Gf8AhJfEX/gYv/xFNfwZtKD/AISXxDy2P+PxfQ/7FAHV0Vy3/CFf9TL4h/8AAxf/AImgeC8j/kZfEP8A4GL/APEUAdTRXLHwXjH/ABUviHn/AKfF/wDiKP8AhCv+pl8Q/wDgYv8A8TQB1NFcsPBec/8AFS+Iuv8Az+L/APEU2TwZsTP/AAkviHqB/wAfi+v+5QB1dFct/wAIV/1MviH/AMDF/wDiaB4LyT/xUviHj/p8X/4igDqaK5Y+C8DP/CS+If8AwMX/AOIo/wCEK/6mXxD/AOBi/wDxNAHU0Vyw8F8kf8JL4i/8DF/+IpH8F7Y2YeJfEPAJ/wCPxf8A4mgDqqK5YeCsgH/hJfEP/gYv/wARR/whfJH/AAkviH/wMX/4igDqaK5Y+CsDP/CS+If/AAMX/wCJoHgrj/kZfEP/AIGL/wDE0AdTRXLf8IX82P8AhJfEXT/n8X/4ij/hCv8AqZfEP/gYv/xNAHU0VykfgzfGrHxL4h5H/P4v/wARTv8AhC+QP+El8Q/+Bi//ABFAHU0Vy3/CFf8AUy+If/Axf/iaB4LyM/8ACS+Iv/Axf/iKAOporlj4L5A/4SXxFz/0+L/8RR/whX/Uy+If/Axf/iaAOporlE8Gbgf+Kl8Q8MR/x+L/APEU4+C8Ef8AFS+Ief8Ap8X/AOIoA6miuW/4Qr/qZfEP/gYv/wATQPBec/8AFS+Iv/Axf/iKAOporlj4Lx/zMviH/wADF/8AiKP+EK/6mXxD/wCBi/8AxNAHU0Vyi+DMu4/4SXxD8pH/AC+L6f7lOPgvA/5GXxD/AOBi/wDxFAHU0Vy3/CFf9TL4h/8AAxf/AImgeC8kj/hJfEXH/T4v/wARQB1NFcsfBeBn/hJfEP8A4GL/APEUf8IV/wBTL4h/8DF/+JoA6miuU/4Qz96V/wCEl8Q/dz/x+L/8RTj4KwCf+El8Q/8AgYv/AMRQA64/5Klp3/YFuv8A0dBXTfx/hWBpXhO30zVhqbajqV7crA1upvJg4VGZWOMKO6LW9tG/p2oAcehpF+6PpSFRg8UBRtHFADW/18f0P9KkqJlHnR8dj/SpNo9KABfuj6UH7y0iqNo4oKjcOKAHUi/do2j0pFUbelADZesf++KkqKVRmPj+MVJtHpQAL0P1NI3b60KoweO9IyjjjvQA+kXv9aNo9KQKOeO9ADZ/9UfqP51JUU6jyjx6fzqTaPSgAHVvrSP900BRk8UjKNp4oAfSD7xo2j0pAo3HigAk/wBU/wDumhP9Wv0FJIo8p+OxoRRsXjsKAHfxn6UH7p+lJtG48dqCoweKAFH3R9KP4x9KQKMDijaN3TtQA6o4P9StP2j0qOBR5K8UASH7w/GlppUbhxS7R6UANydw+XtS5P8AdpT98fSl7UAMUnaPloJO4fLTl+6KD94UAGT/AHajiJ2t8v8AG38zUtRw/cb/AH2/maAFJOR8venZP92g9V+tLQAxScH5e9BJ4+XvSr0P1pW7fWgAyf7tRoT5kvy/xD+QqWo4/wDWS/7w/kKAFYnH3e9Oyf7tDdPxFLQAwE5Py0MTt+7Th95qG+6aADJ/u1GCftDfL/AP5mpajH/Hw3+4P5mgBWJ2n5e1Lk/3aVvun6UtADMnf93tSknB+Wj+P8KU/dP0oAQE4Hy0xifPT5f4W/pUg6CmN/r4/wDdb+lADsn+7SKTtHy9qfSL90fSgBpJ3D5adk/3aQ/fFOoAYpO0fLTZCd0fy/x/0NSL90UyT70X+/8A0NAD8n+7TVJx93vT6Ren4mgBpJ4+XvTsn+7SN1H1p1ADATz8vemzE+X93uP5ipF7/WmTf6v8R/MUAPyf7tNBOT8ven0g6t9aAGsTt+7Tsn+7Q33aWgBgJ3H5aSUnyX+X+E/yp4+8abN/qZP90/yoAVSdo+XtSZO4/L2py/dH0oH3z9KAEJOD8tAJwPlpW+6aB0FADcnd93tTsn+7R/H+FLQBFAT5CfL2p2TuHy9qSD/UJ9Kefvj6UAJk/wB2kUnaPlp9Iv3RQA0k7h8tOyf7tB+8tLQBFEThvl/jP86cScj5e9JD0b/fP86eeq/WgAyf7tNUnn5e9PpF7/WgBpJ4+XvTsn+7Q3b60tAESE+bL8vcfypzE4+73pE/1sv1H8qe3T8RQAZP92mgncflp9IPvNQA1idp+WnZP92hvumloAiyftB+X+Afzp7E7T8vam/8vB/3B/Ont90/SgBMn+7SZO77van9qT+P8KAEJOD8tAJ2j5acehpF+6PpQBGxPnR/L2NPyf7tNb/Xx/Q/0qSgBik7R8tBJ3D5acv3R9KD94UAGT/dpqk7fu0+kX7tAEcpOY/l/jFSZP8AdpkvWP8A3xUlADFJwfl70MTx8venL0P1NDdvrQAZP92mgnn5e9PpF7/WgCOYnyj8vp/OpMn+7TJ/9UfqP51JQAwE5Py0MTtPy04dW+tD/dNABk/3aaCdx+Wn0g+8aAGSE+U/y/wmlQnYvy9hSyf6p/8AdNCf6tfoKAEydx+XtSknB+Wl/jP0oP3T9KAEBOB8tJk7vu9qcPuj6Ufxj6UAGT/dqOAnyV+Wpajg/wBStACkncPlp2T/AHaD94fjS0AQ+SNw+eTp/fNL5A/vyf8AfZp2fmHB6Uu7/ZNAEawjaPnk/wC+zQYRuHzyf99mnqflHBoJ+YcGgBvkD+/J/wB9mmRQgqfnk+838Z9an3f7JqOE/K3yn77fzNACGEZHzydf75pfIH9+T/vs04nkcHrTt3+yaAIlhHPzydf75oMI4+eTr/fNPU8Hg9aGPTg9aAOP1mG/v/G1vpVtrN7YW/8AZ5nb7OwJZt+OdwPapx4P1IZ/4rHWufeP/wCJp0pz8Ubfj/mEt/6NqlruofZNYuQvhybVSzDLxPCNnyrwfMZf0oAuf8IhqX/Q461+cf8A8TR/wiGpf9DjrX5x/wDxNM8MXX2vVWk/smTS28hgYJGjJPzL83yMR+vauupsDlP+EQ1L/ocda/OP/wCJo/4RDUv+hx1r84//AImuropAcp/wiGpf9DjrX5x//E0n/CH6lnP/AAmOtZ+sf/xNdZRQByn/AAiGpf8AQ461+cf/AMTR/wAIhqX/AEOOtfnH/wDE11dFAHKf8IhqX/Q461+cf/xNH/CIal/0OOtfnH/8TXV0UAcp/wAIhqX/AEOOtfnH/wDE0n/CH6lnP/CY61n6x/8AxNdZRQByn/CIal/0OOtfnH/8TR/wiGpf9DjrX5x//E11dFAHKf8ACIal/wBDjrX5x/8AxNH/AAiGpf8AQ461+cf/AMTXV0UAcp/wiGpf9DjrX5x//E0h8H6kcf8AFY61x7x//E11lFAHKf8ACIal/wBDjrX5x/8AxNH/AAiGpf8AQ461+cf/AMTXV0UAcp/wiGpf9DjrX5x//E0f8IhqX/Q461+cf/xNdXRQByn/AAiGpf8AQ461+cf/AMTSHwfqR6+Mda/OP/4musooA5T/AIRDUv8Aocda/OP/AOJo/wCEQ1L/AKHHWvzj/wDia6uigDlP+EQ1L/ocda/OP/4mj/hENS/6HHWvzj/+Jrq6KAOU/wCEQ1L/AKHHWvzj/wDiaQ+ENSIwfGOtYPvH/wDE11MrFIncdVUmvMdB8R/E3xLpa6pp9p4UW0kkdUWdrhZMKxHOMjtR1sB03/CIal/0OOtfnH/8TR/wiGpf9DjrX5x//E1P4O8Ty+JbG7F5Ziz1GwuWtLuBX3qsi91buCDmtWHW9JudQfT4NUspb2P79vHcI0i/VQcigDD/AOEQ1L/ocda/OP8A+Jo/4RDUv+hx1r84/wD4muivtRstMtjc6heW9pADgy3EqxqPxJAqlqesxw+GLzV9Omt7pYrd5onV98bkAnqp5H0NKTSTb6DSu7GV/wAIhqX/AEOOtfnH/wDE0f8ACIal/wBDjrX5x/8AxNaGl+ILeXwtpmr6rc2ll9rgidjJII03uAdoLH1PAzWlqBvf7OnOmC3a82HyBcE+WW7bsc4+lOWlxJ3sc4PB+pAYHjHWvzj/APiaX/hENS/6HHWvzj/+JrldS8TfE/Sta0jSp7Twk1xqjyJAyNcFVKLuO4k5HHoDXS6df+Mre5sYfEEnhiBri5KFLeaUNJGEJxGH+8+R06YzR0uD0Jf+EQ1L/ocda/OP/wCJo/4RDUv+hx1r84//AImq+n/EKw1PVvEOn21zYmXTBi2C3Ku1ziPezAA8gHg4zjB5rX8Ma62r+DdN1y/MFu1xarPMQdsaZGTyTwPqaOl/T8Qvrb1/Aof8IhqX/Q461+cf/wATR/wiGpf9DjrX5x//ABNdBp+q6dq0LTabf2t5EpwXtplkAPplSat0AcmPB+pD/mcda/OP/wCJpf8AhENS/wChx1r84/8A4murooA5T/hENS/6HHWvzj/+Jo/4RDUv+hx1r84//ia6uigDlP8AhENS/wChx1r84/8A4mj/AIRDUv8Aocda/OP/AOJrq6KAOT/4RDUuf+Kx1rn3j/8AiaX/AIRDUv8Aocda/OP/AOJrq6KAOU/4RDUv+hx1r84//iaP+EQ1L/ocda/OP/4murooA5T/AIRDUv8Aocda/OP/AOJo/wCEQ1L/AKHHWvzj/wDia6uigDk/+EP1LOf+Ex1rP1j/APiaX/hENS/6HHWvzj/+Jrq6KAOU/wCEQ1L/AKHHWvzj/wDiaP8AhENS/wChx1r84/8A4murooA5T/hENS/6HHWvzj/+Jo/4RDUv+hx1r84//ia6uigDk/8AhD9Szn/hMda/OP8A+Jpf+EQ1L/ocda/OP/4murooA5T/AIRDUv8Aocda/OP/AOJo/wCEQ1L/AKHHWvzj/wDia6uigDlP+EQ1L/ocda/OP/4mj/hENS/6HHWvzj/+Jrq6KAOT/wCEQ1I/8zjrX5x//E0v/CIal/0OOtfnH/8AE11dFAHKf8IhqX/Q461+cf8A8TR/wiGpf9DjrX5x/wDxNdXRQByn/CIal/0OOtfnH/8AE0ng43jS67Z3uo3V6bLUDBHLMwDbfLRsHGB1Y11lcr4SONY8WcE/8Tb/ANoRUAdFNCBEfnk7fxn1p/kD+/J/32aJj+6Pynt/OpN3+yaAIhCMn55P++zQ0I2n55P++zUgPJ+U0jH5TwaAG+QP78n/AH2aQQjcfnk/77NS7v8AZNID8x4NAEUkIEbfPJ0P8ZpUhBRfnk6f3zTpG/dP8p6GlQ/IvynoKAGeSNx+eTp/fNKYBg/PJ/32afn5jwelBbg/KaAGCAYHzyf99mk8kbvvydP75qQHgfKaTPzdD0oAb5A/vyf99mmQwgwqd8n/AH2an3f7JqOA/uV+U0AIYRuHzyf99ml8gf35P++zTifmHBp27/ZNAAfvj6Uvam4+YcnpS7fc0AC/dFB+8KRR8o5NBHzDk0AOqOH7jf77fzNP2+5qOEfK3J++38zQBIeq/WlppHI5PWl2+5oAF6H60N2+tNUcHk9aVh05PWgDmJf+SpW//YJb/wBG1o3Xhy3u7uW4N1dRtIclUZcdMd1NZsox8Ubf/sEt/wCja6qgDL07QoNNumuEuLiVymz96ykAZB7AelalFFABRRRQAUUUUAFFFFABRRRQAUUUUAFFFFABRRRQAUUUUAFFFFABRRRQAUUUUAFFFFABRRRQBHcf8e0v+4f5V458PvD3jG+8Iw3GleOv7Ms2ll2Wv9kwzbPnOfnY5NeyyLvjZM43AjNeb6Z8OfFWi2gstM+IU1tZq7MkI0qFtu45IyxJ70luweyOZfUr7w94I8ZaC7qmtWdzF9q1KFmzci4dQZTn7rbSQR0Haur8Z+EtC0n4a3k2nWMFnc6VbG5s7qFAssciDcG39SSRzzzmtnSvAGmWWi6pYX00+py6sS1/c3JG+YkY7fdA7AdKpH4fXt5bRaXq3im9v9DiK4smhRHlVSCqyyjl14HYE9zTeqt101+X6dP0Bb36a6f13MzQY4vFnxBubnW4I7g6fpVm9tbzKGSN5lLSOFPG7IAzVLVLaHQvFXirSdNRYNPvNBe9ltowAkcwJXcF6DcOuOuK7PWvCLXmrQ6zo+pyaRqscP2dpo4lkjlizkK8ZwDg9CCCKgtPA0cNlq5u9SnvdV1WAw3F/MgBC4ICogwFUZzjP41M1eLS8/xuOGjV/L8Lf5P7zgfAk0+p6/4eh8V2jW6RaZHJoUBkDROVGGkb/ppjBGegNe11yOo+Bo77wvpOlx37QXuk+U1pfrFlkdABnbnoRwRmusjDrGokYM4A3MBgE+uO1aN3+9kRTVvQ4Pxn/wAlJ8A/9fF1/wCiqn8a/wDI4eBv+wlL/wCiHrZ1nw0NX8SaDrBuzEdJklcReXu83em3Gc8Y69DT9a8PDWNX0O/NyYjpdy04QJu8zchTGc8dc96h7RXZ/rct9fT/ADOM0OytIvEXxHeO1hVopIxGVjAKA2wzj0zXMG4ubjQfhrow0t9Vs57RriWwWVIxcNGgKhi5CkAnOD1xXpZ8Hzx+JNV1O01ZobXVYwt3ZtbhgziMorq+QV4xxg5xULeALZvC2jaUNQnivdHVfsmowKFdHAxnacggjqp6010/7d/C/wDw4ra/+BfjYwbXTtcPjvSNUsvBjaHAoeG/cXVvtliI+XKxtyQenFenVymm+D7pdcg1jXtcl1a7tVK2q+QsEUWerbATlj6k/QV1dPpYXW4UUUUhhRRRQAUUUUAFFFFABRRRQAUUUUAFFFFABRRRQAUUUUAFFFFABRRRQAUUUUAFFFFABRRRQAVy3hL/AJC/iz/sLH/0TFXU1yvhIZ1fxZyf+Qt/7QioA6af/VH6j+dSVFOP3R5Pb+dSbfc0AA6t9aH+6aQLyeTSMPlPJoAfSD7xo2+5pAvzHk0AEn+qf/dNCf6tfoKSRf3T8n7poRfkXk9BQA7+M/Sg/dP0pNvzHk9KCvB5NACj7o+lH8Y+lIF4HJox83U9KAHVHB/qVp+33NRwL+5Xk0ASH7w/GlppHzDk0u33NADd3zDg9PSl3ex/Kl/jH0pe1ADFb5RwfyoLfMOD+VOX7ooP3hQAbvY/lUcTfK3B++3b3NS1HD9xv99v5mgBS3I4PX0p272P5UHqv1paAGK3B4PX0oLdOD19KcvQ/Whu31oA4fWtc0zRPiVaz6neR2sb6Uyq0meT5vStL/hYnhH/AKD1r+Z/wpk6q3xRtwyg/wDEpbqP+mtdIkUfmS/u0+8P4R6CgDnv+Fh+Ef8AoO2v5n/Cl/4WH4R/6Dtr+Z/wromijx/q06j+EUvlR/8APNP++RQBzf8AwsPwj/0HbX8z/hR/wsPwj/0HbX8z/hXRiKPJ/dp/3yKGij2/6tP++RQBzv8AwsPwj/0HbX8z/hSf8LE8I/8AQetfzP8AhXSeVH/zzT/vkUwQx+e37tcbR/D7mgDnv+Fh+Ef+g7a/mf8ACl/4WH4R/wCg7a/mf8K6Joo9p/dp0/uil8qP/nmn/fIoA5v/AIWH4R/6Dtr+Z/wo/wCFh+Ef+g7a/mf8K6Pyo9/+rTp/dFKYo8H92n/fIoA5v/hYfhH/AKDtr+Z/wo/4WJ4R/wCg9a/mf8K6QRR4H7tP++RTGij85P3a4wf4fpQBz/8AwsPwj/0HbX8z/hSf8LD8I/8AQdtfzP8AhXSeVH/zzT/vkUixR7R+7Tp/dFAHOf8ACw/CP/QdtfzP+FL/AMLD8I/9B21/M/4V0Rij3D92n/fIpfKj/wCeaf8AfIoA5v8A4WH4R/6Dtr+Z/wAKP+FieEf+g9a/mf8ACujWKPb/AKtP++RTZIo90f7tfvf3fY0Ac/8A8LD8I/8AQdtfzP8AhSf8LD8I/wDQdtfzP+FdJ5Uf/PNP++RSLFHj/Vp1P8IoA5z/AIWH4R/6Dtr+Z/wpf+Fh+Ef+g7a/mf8ACuiaKPj92nX+6KXyo/8Anmn/AHyKAOb/AOFh+Ef+g7a/mf8ACj/hYnhH/oPWv5n/AAro1ij5/dp1/uimTRR+X/q06j+EeooAwP8AhYfhH/oO2v5n/Ck/4WH4R/6Dtr+Z/wAK6Tyo/wDnmn/fIpBFHlv3adf7ooA5z/hYfhH/AKDtr+Z/wpf+Fh+Ef+g7a/mf8K6Joo9v+rT/AL5FL5Uf/PNP++RQBzf/AAsPwj/0HbX8z/hR/wALE8I/9B21/M/4V0Yij3H92n/fIpssUfkv+7T7p/hFAHPf8LD8I/8AQdtfzP8AhR/wsPwj/wBB21/M/wCFdGsUe0fu06f3RR5Ue8/u06f3RQBzn/Cw/CP/AEHbX8z/AIUv/Cw/CP8A0HbX8z/hXRGKPaf3af8AfIpRFHgfu0/75FAHN/8ACw/CP/QdtfzP+FL/AMLD8I/9B21/M/4V0XlR7/8AVp0/uil8qP8A55p+VAHN/wDCxPCP/QetfzP+FH/Cw/CP/QdtfzP+FdBBFH5Cfu06f3RT/Kj3j92nT+6KAOd/4WH4R/6Dtr+Z/wAKT/hYfhH/AKDtr+Z/wrpPKj/55p/3yKRYo9o/dp/3yKAOc/4WH4R/6Dtr+Z/wpf8AhYfhH/oO2v5n/CuiMUe4fu0/75FL5Uf/ADzT/vkUAc3/AMLE8I/9B61/M/4Uf8LD8I/9B21/M/4V0EUUeG/dp98/wj1p5ijyv7tOv90UAc7/AMLD8I/9B21/M/4Un/Cw/CP/AEHbX8z/AIV0nlR/880/75FIsUfP7tOv90UAc5/wsPwj/wBB21/M/wCFL/wsPwj/ANB21/M/4V0TRR8fu06/3RS+VH/zzT/vkUAc3/wsTwj/ANB61/M/4Uf8LD8I/wDQdtfzP+FdAkUfmy/u06j+EelPaKPH+rTr/dFAHO/8LD8I/wDQdtfzP+FJ/wALD8I/9B21/M/4V0nlR/8APNP++RSCKPcf3af98igDnP8AhYfhH/oO2v5n/Cl/4WH4R/6Dtr+Z/wAK6Joo9p/dp/3yKXyo/wDnmn/fIoA5v/hYnhH/AKD1r+Z/wo/4WH4R/wCg7a/mf8K6Dyo/tB/dp9wfwj1p7RR7T+7Tp/dFAHO/8LD8I/8AQdtfzP8AhSf8LD8I/wDQdtfzP+FdJ5Uf/PNP++RSeVHv/wBWnT+6KAOd/wCFh+Ef+g7a/mf8KT/hYfhH/oO2v5n/AArpDFHg/u0/75FIsUe0fu06f3RQBzn/AAsTwj/0HrX8z/hS/wDCw/CP/QdtfzP+Fb7RR+dH+7Tof4R7VJ5Uf/PNP++RQBzf/Cw/CP8A0HbX8z/hR/wsPwj/ANB21/M/4V0axR7R+7T/AL5FBij3D92n/fIoA53/AIWH4R/6Dtr+Z/wpP+Fh+Ef+g7a/mf8ACuk8qP8A55p/3yKRYo9v+rT/AL5FAHOf8LE8I/8AQetfzP8AhS/8LD8I/wDQdtfzP+Fb8sUeY/3affH8IqTyo/8Anmn/AHyKAOb/AOFh+Ef+g7a/mf8ACj/hYfhH/oO2v5n/AAro1ijwf3adf7ooaKPj92nX+6KAOd/4WH4R/wCg7a/mf8Kp+BdQtdRvPE93ZzLPby6ruSROjDyYx/MGuv8AKj/55p/3yK5nwiANX8VgDA/tY/8AomKgDpJm/dHg9u3vUm72P5Uyf/VH6j+dSUAMDcng/lQzfKeD+VOHVvrQ/wB00AG72P5U0N8x4P5U+kH3jQAyRv3b8H7p7UqN8i8HoO1LJ/qn/wB00J/q1+goATd8x4PT0pS3B4P5Uv8AGfpQfun6UAIG4HB/Kk3fN0PT0pw+6PpR/H+FABu9j+VRwN+5Xg/lUtRwf6laAFLfMOD+VO3ex/Kg/eH40tAEPlybh++bp/dFL5cn/PZv++RTtw3Dr09KXcPf8qAI1jk2j98f++RQY5Nw/fH/AL5FPVgFHX8qCw3Dr+VADfLk/wCe7f8AfIpkUcm0/viPmb+EetT7h7/lUcTDa3X77dvc0AIY5Mj983X+6KXy5P8Anu3/AHyKcWGR16+lO3D3/KgCJY5Of3zdf7ooMcnH749f7op6sMHr19KCw469fSgDlZUf/haFuPNOf7JbnA/561r6rqf9i6bc3ZjNxKJEjiiyFMjuVVVzjjJI5rLlI/4Wjbn/AKhLdv8AprUfiO31bU/EOlWWmeXClvI19LcXFu0kOVUIiEBlySXZuvGwGjyA1bHxJZ3Hh611e6P2RJmWJ43O4xyl/LMZIHUP8tWrvWbCxnkgnmbzo4DcNGkTu3lg4yAoJPJ6DmvPbvTddsrDXdMuLdrxVvrXVonsrV0jZTMrzIilmJYFGbbkk7uBziug0y7m1X4hPfxadfQ6eulmKO5ubdohK/mAkBWAZcf7QBPOBjmhXbX9dL/noD0Tf9b/AOWpL4W8cWniBWjdJkuTczRIFs5whVWIBLMuASByCag8NeOLO6tUh1O/Q3z3csA2RNtUhyFVmUbVJAHDEE0/wldf2XLe6JeWt9HdG/uJY3NnKYnR2LhhKFKDrjBYHIrD/sq7T4Z3VumnzrcvqZlMSwsHYfaQd2MZPHOfSnHVrzt+hT627/5na6n4n0fSLj7PeXZWULudY4nk8tf7z7Adg92wKW+8T6LprW6XWoRK1zGZbdVBczKMZ2BQdx+YcDJNc/Fdf8I9rviAX+nX9wdQlWa3kt7SSdZl2BfLJUEIQRj5yBznpVDQNAvtM1vwhDd2rsbPSrlJXCbkhctGQu7oDjIHrg0lrb+ujf6EvT+vQ7ay1rTtQ0x9RtrpWtY93mOylDGV+8GVgCpGOQQDUunajaatp0GoWE6z2twgeKVejA/WmS21tZWV9JBYo5lDzSxRoAZ32859ScAc1W8MSrP4Y06VNKbSVaBSLBl2m3H93GBjH0H0FH/AD/gmtXPWfipLvxRPo/2RkiTcsV0X4lkTBdAuOMAg5zWzf3DWmn3FwkTyvFGzrHGpZmIHAAHWvNxoninTNC0fVZJLW4lsrgXcltBYyfaSJT+8Qt5hBIDYPy/w9qFv/XUHtpuegHXNNWzvbs3S+RZO0dw+0/u2XqDx29qwtY8dWeleJNO00rM0U6yNM62c7kYVSuzapDZzzjOPauc1OS9tNE8WaTHo+pXN9e3Us0CxWzFHjfBDeZjbwP4c7vaug1xZrHU/DGrNbXUttaLLFcfZ4GlePei4YooLEZXBwD1pK+jfkPS9vUfqvi6Gx1rQWNz5OmX0Fy7iWFld2UJsAUjfu+Y/KBk+lbUPiHSZ9IfVVvUWyjJV5JQY9jA4KlWAIOeMEZ5HrWNeoNV8Y+FtRhtJ3tY4LtvMltnTyiRGF3BgChPOMgHrWHdaZfAa1dfYLmWK38SRXzQLGd08KRxZZB/HggkAZyVwOapK+n9bpfrf5A9k1/W52Nl4m0i/huZILph9mTzJklheJ0X+8UcBsdecYqKx8YaDqV1Bb2eoLK9wu6FhG4jk4zhXI2k46gHI9K53UFl8QavearYWd4lrBpFxal57V4XnkcghVR1DkDaTnGMkAZ5xv+GdLhHhHQIruyRZrW1hZUliw0UgQAnB6N1pLu/63/yE/L+tv8zfrmNN8ZRahqGu2Zs3hfS3dVJkBE4Uckccc9ueorp680j0y+t7XxNqCWVz58OqXMkaCE7p4XQKwQYywPDcdSgqZN2duz/QpW09V+TOvj8U2C6Hp+p3QlhW9iWRIo4nncZGeiKTgZ64x09afJ4s0KLT7a+bUENvco0kLKrMXC43YAGcjPIxn2rkY7vWbDTvDdgx1PTbH+zFMlzZ6ebibzxtHlMpR/LGDnJXkjqMc5ekaRqH2fSzcadfeZHcau5+0W4DqX3bSwQbQWzxt4OeKqo7c1ul/wACIbRv1t+J6JZeKNE1BroWuowuLRBJM5yqKhzhtxGCOCMgnBBB5FO0zxFpetSSQWF0xmRQ5WSF42KnoyhwNy+4yK8sj8N6xdaQLWCxu4ZD4YsoyPJ27nWQs8fzjbuxnKn15rsvD8MGoa/b6hJq2v3VzawOEjv9L+yoqtjI3CBAx9smqaSdvX9Qu/y/FJ/qdgI5Of3x6/3RTZo5BH/rieR/CPUVKGHPXr6U2Zh5ffqO3uKkYeXJ/wA9m/75FII5Mn98ev8AdFS7h7/lTQwyevX0oAY0cm3/AFx/75FL5cn/AD3b/vkU5mBXv+VO3D3/ACoAiEcm4/vj/wB8ikljk8l/3x+6f4RUgYbj1/KklYeS/X7p7e1ADVjk2j983T+6KPLk3H98en90VIrDaOvT0pNw3Hr09KAGmOTB/fN/3yKBHJgfvm/75FPLDB6/lQGGB1/KgCPy5N3+uPT+6KXy5P8Ans3/AHyKduG7v09KduHv+VAEEMchhTExHH90U7y5Nw/fN0/uilgYeQnXp6U7cNw69PSgBvlyf89m/wC+RSLHJtH74/8AfIqTcPf8qRWAUdfyoAYY5Nw/fH/vkUvlyf8APdv++RTiw3Dr+VO3D3/KgCCKOTDfvj94/wAI9acY5Mj983X+6KWJhhuv3z296cWGR16+lADfLk/57t/3yKRY5Of3x6/3RUu4e/5U1WHPXr6UAMMcnH749f7opfLk/wCe7f8AfIpxYcdevpTtw9/yoAgSOTzJP3x6j+EelOaOTH+ubr/dFKjDzZevUdvanMwI79fSgBvlyf8APdv++RSCOTcf3x/75FS7h7/lTQw3Hr+VADGjk2n98f8AvkUvlyf892/75FOZhtPX8qduHv8AlQBB5cnnn98fuj+EetOaOTaf3zdP7opdw+0Hr9wdvensw2nr09KAGeXJ/wA9m/75FJ5cm7/XHp/dFSbh7/lSbhu79PSgBpjkx/rm/wC+RQI5No/fN/3yKeWGD1/KgMNo69PSgCFo5POj/fHof4RT/Lk/57t/3yKGYedH16Ht9Kk3D3/KgCJY5No/fH/vkUGOTcP3x/75FPVhtHX8qCw3Dr+VADfLk/57t/3yKRY5Mf64/wDfIqXcPf8AKmqw29/yoAikjkyn74/eH8Ip/lyf892/75FErDMfX747VJuHv+VAESxyYP749f7ooaOTj98ev90U9WGD16+lDMOOvX0oAb5cn/Pdv++RXMeE0c6v4rxKR/xNj2H/ADxirq9w9/yrlvCRA1fxZ/2Fj2/6YxUAdFNHIIjmYnp/CPWn+XJ/z2b/AL5FEzDyj17dvepNw9/yoAiEcmT++P8A3yKGjk2n98f++RTwwyev5UMwKnr+VADfLk/57t/3yKQRybj++P8A3yKl3D3/ACpoYbj1/KgCOSOTy2/fHof4RSpHJsX98en90U6Rh5b9eh7UqMNi9eg7UAM8uTcf3x6f3RSmOTB/fN/3yKduG49enpSlhg9fyoAYI5MD983/AHyKTy5N3+uPT+6KkDDA6/lSbhu79PSgBvlyf89m/wC+RTIY5DEuJiP+Aip9w9/yqOBh5K9fyoAQxybh++P/AHyKXy5P+e7f98inFhuHX8qduHv+VAAfvj6Uvam4O4c9vSlwf736UAC/dFB+8KRQdo5/Sgg7hz+lADqjh+43++38zT8H+9+lRwg7W5/jbt7mgCQ9V+tLTSDkc9/Slwf736UAIvQ/Wlbt9aaoODz39KVgeOe/pQBzEv8AyVK3/wCwS3/o2ulj/wBZL/vD+QrmZQf+Fo2/P/MIb/0bXSoD5kvP8Q7ewoAkJwKWmsDjr39KXB/vfpQAA5JHpQTgZpoByeaVgdvX9KAHU0MfNK9goP8AOlwf736VGAftDc/wDt7mgCQnCk0tNYHaee3pS4P979KADPzY9qU8A0zB39e1KQcHn9KAHDpTSxEir2IJ/lQAcDn9KYwPnpz/AAt2+lAEtIDlQaMH+9+lIoO0c9vSgBSfmA9aWmEHcOf0p2D/AHv0oAAcjNI7FSgH8TY/ShQdvX9KZIDuj5/j9PY0AS0gORRg/wB79KRQcde/pQApOMe5paYwPHPf0p2D/e/SgAXv9aZN/q/xH8xTlB557+lMmB8vr3Hb3FAEtIOrfWjB/vfpSAHJ57+lAA33adTGB29f0p2D/e/SgAH3jTZv9TJ/un+VKAdx5/Smyg+S/P8ACe3tQA9fuj6UD75+lIoO0fN29KMHcee3pQArfdNA6CkIO08/pQAcDn9KAF/j/ClpuDv69vSlwf736UAMg/1CfSnn74+lRwA+QnPb0p+DuHPb0oAdSL90UYP979KRQdo5/SgBT95aWmkHcOf0pcH+9+lADIejf75/nTz1X61HEDhuf4z296eQcjnv6UAOpF7/AFowf736U1Qeee/pQA5u31paawPHPf0pcH+9+lADE/1sv1H8qe3T8RUaA+bLz3Hb2pzA469/SgB9IPvNRg/3v0poB3Hn9KAHN900tNYHaef0pcH+9+lADP8Al4P+4P509vun6VHg/aDz/AO3vT2B2nnt6UAO7Un8f4UYP979Kbg7+vb0oAeehpF+6PpSEHB5/SgA7Rz+lADW/wBfH9D/AEqSomB86Pnse30qTB/vfpQAL90fSg/eWkUHaOf0pCDuHP6UAPpF+7Rg/wB79KRQdvX9KAGy9Y/98VJUUoOY+f4x2qTB/vfpQAL0P1NDdvrSKDg89/SkYHjnv6UAPrlvCX/IX8Wf9hY/+iYq6jB/vfpXLeEgf7X8Wc/8xY/+iYqAOmn/ANUfqP51JUU4PlHn07e9SYP979KAAdW+tD/dNIAcnn9KRgdp5/SgB9IPvGjB/vfpSAHcef0oAJP9U/8AumhP9Wv0FJID5T8/wntQgOxeew7UAO/jP0oP3T9KTB3Hnt6UEHB5/SgBR90fSj+MfSkAOBz+lGDu69vSgB1Rwf6lafg/3v0qOAHyV5/SgCQ/eH40tNIO4c/pS4P979KAG7huHPal3L60v8Y+lLQAxWG0c0FhuHNOX7ooP3hQAbl9ajhYbW5/jb+ZqWo4fuN/vt/M0AKWGRz3p25fWg9V+tLQAxWGDz3oZhxz3pV6H60rdvrQBy0pH/C0bc5/5hLf+ja6aMgyS4/vD+Qrmpf+SpW//YJb/wBG1X8QSS6j4u0zw6000NjcRTXdz5LlGmEewCPcOQp35OOeBR5AdgRkUteeyeJ9M8OaJqI0uzvLOeG4gtzBfq5VHlbCv1YkY5OOu0CpdN8WXhur+0W+/tRI7CS6ju/sTQCN1IGxgRg5yCMehob3f9bXBL+vnY7wDBJ9aCMjFcLpWu+IAfDF5qN1ayxa2qh7aKHaISYt4ZWzk9OQfWk0vUfF+tWd7fWt1Yr9lvpIIbUw8Tor4+dyflOM9KbVnb+un+YdL/11/wAjvKbt/eF89QBiuB1jxjP/AG9qGnwapFpn9nhBhrN7jz5GXdgkD5VHA4561tPqevaz4Ft9R0O3ht9WuI45FhvAQqZYbwe/TNJaq4bOx0pGQRS0i52jdjdjnFcz8Q5Gi8C6m6GUEIv+qYhj8w4BBBpN2QHTY5zSnkV51pF1a6V4pna0tdQ0yzXTpJZLO+Zt1y6kHcgZm+6MgnP8Q471Z/t3xBa6Np3ia5ubd7K7eIyaesOPKjlICkSZyWGQTkYPNNf1+QHeDgVWF3avqRsxOhuo4hI0OfmCMcBsemVP5Vx8ut+ILzStU1+xubeG0sJJhFZPDu89Is5LPnKk4OMdOKydQ8Vix8bC4tog97quk2kdmkpKxh2kkOXb+ED8z0HWha/1933g9P6+89PpAMACqumw3sGnxR6hdrdXQH7yZIhGCc9l7Y6VieNL+6t7bS7G1mkt21PUIrR7iL70aHLMVPYkLgHtmh72QdLnS45B9KWuEGp6F4Qn1OK3sNSt57Wykum89naO4RCBlSzHPLD06modF8XXs+s6ZE+opqKX+RNBFYyRfZDt3AhyPmX+Hn60LUHors9AAwMUjLuKnP3TmvOoPEviT/hH4/EE91aCBL/7ObRIP9bGZvLDFs5Vuc8cce9aQv8AxLq/iTxBp1hqFpZ2+ntGIXa38x2Zow205ONuT160dL/10/zB6Ox2tJkLwTXC6z4svLS+0/SLq7i0m8eyF1dzJbtchWJ2hEAHIyGOT6D1rd8Iazca3ohnuhmaGeSAyiJo1mCniQK3IDDBx2Oadv6/AHpv/XU22Ycc96duX1pG6j606kAxWHPPemzMPL69x/MVIvf60yb/AFf4j+YoAfuX1poYZPPen0g6t9aAGswK9aduX1pG+7TqAGBhuPNJKw8l+f4T/Knj7xps3+pk/wB0/wAqAFVl2jntSbhuPPanL90fSj+M/SgBCwweaAy4HNK33TQOgoAbuG7r2p25fWj+P8KWgCKBh5Cc9qduG4c9qSD/AFCfSnn74+lABuX1pqsNo5p9Iv3RQA0sNw5p25fWg/eWloAiiYYbn+M/zpxYZHPeki6N/vn+dPPVfrQAbl9aarDnnvT6avf60ABYcc96XcvrQ3b60tAESMPNl57j+VOZgR170if62X6j+VObp+IoAXcvrTQw3Hmn00feagBGYbTzTty+tDfdNLQBFuH2g8/wD+dPZhtPPam/8vB/3B/Ont90/SgBNy+tJuG7r2p/ak/j/CgBCy4PNAYbRz2pT0NC/dH0oAjZh50fPY/0qTcvrTG/18f0P9KkoAarDaOaQsNw5py/dH0oP3hQAbl9aarDb1p9Iv3aAI5WGY+f4xUm5fWmS9Y/98VJQA1WGDz3pGYcc96cvQ/U0jdvrQAu5fWuW8JEDV/FnP8AzFj/AOiYq6quW8Jf8hfxZ/2Fj/6JioA6SZh5R59P51JuX1pk/wDqj9R/OpKAGhhk80jMCp5pw6t9aR/umgBdy+tIGG4806kH3jQA2Rh5b89jQjLsXnsKWT/VP/umhP8AVr9BQAbhuPPagsuDzS/xn6UH7p+lACBhgc0m4buvanD7oo/j/CgA3L61HAw8lealqOD/AFK0AKWG4c07cvrQfvD8aWgCHE+4fNH09D/jS4n/AL0f5H/Gn7huHI6etLuX1H50ARKJ9o5j/I/40ET7h80f5H/GpFYbRyPzoLDcOR+dADMT/wB6P8j/AI0yITbTgx/ebsfX61PuX+8PzqOFhtbkffbv7mgBCJ8j5o+vof8AGlxP/ej/ACP+NPLDI5HX1pdy/wB4fnQBEonwfmj6+h/xoIn4+aPr6H/GpFYYPI60Mw45HX1oA5SUS/8AC0LflN39kt2P/PWtLVNBXV5Yrj7TJaahZyFra7gA3R5UBhg5DKQOQeOB6VQlI/4WjbnI/wCQS3/o2ulRh5kvI+8O/sKAOcXwXFNbakuo6lc3dzfSRSG52rE8TRY8spsAAIIzmr1vo1/9lu7fUNcnvo7iIxgNBFHsyMZG1Rn8a2GYY6jqO9LuX+8Pzo8gWhhp4Yt0t9AhFxMRou3yjxmTEez5uPQ54q1omjQ6HazwQzSSLNcSXBL4yC5yRx2rRDDceRQzDb1H50223cOy/r+tTCvPDczapPqOl6vcabNchRcCONJElKjAba4IBxxkdeKm1zQf7e8PPpFxqF1Ez7C9zbsEkJVgc8cDOK2Ny/3h+dRhh9obkfcHf3NICRRtUDOcDGTWdr2jpr2iXOmyTyQLOAPMjALLgg5APHatBmG08jp60u5fUfnQ9QMG08NMNRF9qupTapOkTQxebGkaxq33sKgAJPTJ7VWtvBqwm2t5tVu7jS7SQS29i6oFQqcqCwG5gOwJ9PSul3Df1HSlLLg8j86AOZuPBiyveQRardwaXeyNJc2CKm1y33wHI3KG7gH19asXnhDTL+7vHuVLw3dilk1vwFVEZiGXuGBbr2wK3gy4HI/OmMw89OR91u/0o6WC+tytpFhNpmlwWc9/PfPCu0Tzgb2HbOAMnHfvTdZ0e11zTzaXJdQHWSOSJtrxupyrKexBFX9y+o/OkVhtHI6etD13BaHNw+ETLfy3esarPqjPZvZhZIo4wI3ILfcAyflFWtK0TUdMliV9furqziXYlvNDHnHQZcLuJHrnnvWyWG4cj86duX+8PzoCxzv/AAh9r/wjQ0T7VP5P2gXHmfLuyJPMx0xjPFX9P0WHTtY1TUUmkaTUXjd0bGFKoFAH4DNaSsu0cimSMN0fI+/6+xo/r+vuB67mXqugtfX8Oo2eoT6ffxRmEzRKr74yc7WVgQeeQeo59au2Vve21okU999slGd00kaqW59FwPare5f7w/OkVhjqOp70eQEbCfj5o+vof8aXE/8Aej/I/wCNOZhxyOvrTty/3h+dAEQE/PMfX0P+NNmE3l8mPqOx9R71MrDnkdfWmTMPL6jqO/uKADE/96P8j/jSAT5PzR9fQ/41LuX1H50gYZPI6+tAEbCfb96P8j/jS4n/AL0f5H/Gnsw29RS7l/vD86AIgJ9x+aP8j/jSSifyXyY8bT2P+NShhuPI/OmysPJfkfdPegBqifaPmj6eh/xoxPuPzR9PQ/41IrLtHI6etG4bjyOnrQAwifB+aP8AI/40AT4HzR/kf8aeWXB5H50BlwOR+dAEeJ933o+nof8AGlxP/ej/ACP+NP3Df1HT1pdy+o/OgCCETeSmDHjHof8AGnYn3D5o+nof8aWBl8hOR09afuG4cjp60AMxP/ej/I/40iifaPmj/I/41LuX+8PzpFYbRyPzoAjIn3D5o/yP+NLif+9H+R/xp5YbhyPzpdy/3h+dAEEQmw2DH949j6/WnET5HzR9fQ/40sTDDcj757+9PLDI5HX1oAZif+9H+R/xpFE/PzR9fQ/41LuX+8PzpFYc8jr60ARkT8fNH19D/jS4n/vR/kf8aeWHHI6+tLuX+8PzoAgQTeZJzH1HY+n1pzCfH3o+vof8aVGHmy8jqO/tT2YY6jr60AMxP/ej/I/40gE+4/NH+R/xqXcv94fnSBhuPI/OgCNhPtPzR/kf8aXE/wDej/I/409mG08j86Xcv94fnQBBibzzzHnaOx9frTmE+0/NH09D/jS7h9oPI+4O/vT2YbTyOnrQAzE/96P8j/jSYn3fej6eh/xqXcvqPzpNw39R09aAGET4+9H+R/xoAn2j5o+nof8AGnllweR+dAZdo5HT1oAhYTedHzHnB7H/ABp+J/70f5H/ABoZh50fI6Hv9Kk3L/eH50ARKJ9o+aP8j/jQRPuHzR/kf8akVhtHI/OgsNw5H50AMxP/AHo/yP8AjSKJ8dY/yP8AjUu5f7w/OkVht6j86AIZBNlMmP7w7H/Gn4n/AL0f5H/GiVhmPkffFSbl/vD86AIlE+PvR9fQ/wCNDCfj5o+vof8AGpFYYPI6+tDMOOR19aAGYn/vR/kf8a5jwmJf7X8V7Sn/ACFj1B/54xV1e5f7w/OuW8JEDV/FmSP+Qsf/AETFQB0Uwm8o5MfbsfX60/E/96P8j/jROw8o8jt396k3L6j86AIgJ8n5o/yP+NDCfafmj/I/41IGGTyPzoZhtPIoAZif+9H+R/xpAJ9x+aP8j/jUu5f7w/OkDDceR+dAEUgn8tstH0PY/wCNKgn2L80fQdj/AI0+Rl8p+R0PehGXYvI6DvQAzE+4/NH09D/jSkT4PzR/kf8AGn7huPI6etBZcHkfnQAwCfA+aP8AI/40mJ933o+nof8AGpAy4HI/OjcN3UdPWgBmJ/70f5H/ABpkIm8pcGPH0P8AjU+5fUfnUcDDyV5H50AIRPuHMf5H/GlxP/ej/I/408sNw5H50u5fUfnQAmPnH0pcCk+bcOnSl+b2oARR8ooI+YULu2jpQd24dKAHYHpUcI+Vv99v5mn/ADe1Rw7trdPvt/M0API5X607App3ZHTrS/N7UAIo4P1oYdPrSLuwenWlbdx060AcvL/yVK3/AOwS3/o2umjH7yX/AHh/IVzMuf8AhaNv0/5BDf8Ao2tHUvENlo15Hb3S3Uk9yWaKK1tZJ2IULuOEU4A3D86ANdgMfiKdgVQ0rWbDWraSaym3iKQxyo6lHicdVdWAKn2Iq5HLHKMxurgd1OaAFA+ZqGHymkWWJ3ZEkRmHUAgkUNLGriNpEDnopIyfwoAfgVGB/pDf7g/maV5oowS8iKB13MBiqGtX13Y6c0+nWcV7eEqI4HuFh3jIz8x9ASaANBgNp+lOwKbuAUb8AnsTUb3UCQNN5qGNQckMMUPQCTHz/hSkfKaz9F1m11zSrXULYlVuIxIsbkb1B9QCaS2vryfWrq2ayiWwijUxXS3CsZHP3lKDlcep60W1sBogDApjD9+n+639KUyxq4jaRA56KSMmh5Io/mkdFx3YgYzQA/A9Kao+UfSlLKF3FgFxnJPFKOnFADSPnFOwKgvbyDT7Ka8uWKwQIXdgpJAHXgcmsvTfFel6neRWkX2uGeaMyQrd2ksHmqOuzeo3YBzxQtdANlQNopsg+aP/AH/6Gl86IMq+YgLdBuHNUL2+vItV0+2tbKK4glZvtMpuFRrcBcqQh5bJ446UAaWB6U1Rx+JoeRIl3SOqD1Y4qrqepQaVo93qcwZoLaFpm8vklQM8Um7K40ruyLTDp9adgVlaLd6xewCfVNPtLRJEV40humlcZ5w4KKAR7E1q02rCTuNUdfrTZh+7/EfzFZmp64mn3+m2iIkrXlz5DfvMGP5Sc479PatRpIg4jd0DN0UkZP4UAPwKaBy31pJJY4seZIiZ6bmAzTmZUUszBVHUk4FACMPlp2BTBJGyBg6lScAg8GhZY3DFJEYL1wwOKAFA+Y0ko/cyf7p/lVDS729vJ74XNlHbwxTbLeVLhZPPTH3iB93njBq/5sTME8xCzDhcjkUAOUDaPpSY+c/Ss069ZLr7aOWxMtsLguWXZgsVx1znI9Kdq99d2dvE2n2kV5O8qKYnuFiwhOGYE9cDnHegHoaLD5TQBwKGZUUs5CqOpJwKRZI2QOrqV9QeKADHz/hTsCmpJHITsdWK8HBzinUARwAeQn0pxHzj6UnmxK4i3oH7JkZ/KsnXtZn0yXT7Sys1ur6/mMUKSSGONQqlmZ2AJAAHYHJI+tAGzgU1R8oqGya8e0Rr+KCK5Od6QSmRBzxhiqk8Y7CoNY1W30PSbnUbkExW8ZkKIRuYDsMkc0PQaV3ZF0j5lp2B6Vj6vr0Wn+HLnV4ES48mISiLzAM5xwSM461pwXCTxqVZdxUFlDZK5osLomLEOG/3z/OnEDK/WkEkXmGMOm/qVBGfyp9ABgU1R1+tZaa2p8S3ekyRqiW9pFcecz9S7Ou3GOMbOue9ajOiJvZlVOu4nAo6XB6OwMBx9adgU0OjJvDKU67geKrXt+ltpd1exbZhBE8m1W4O0E4z26Um7asaV3ZE6D97L9R/KnMOPxFU9L1BdQ0qzvmVYWuolkCbs8kZxnjNW23Y7dapqzsJaj8D0poHzNS/N7U0btx6UgFYfKadgU1t209KX5vagBmP9IP+4P509h8p+lR/N9oPT7g/nT23bT06UALgY6UmPn/Cl+b2pPm39ulACkDBoUfKPpSHdg9KBu2jpQA1h+/j+h/pUmB6VE27zo+nQ/0qT5vagBFA2igj5hQu7aOlId24dKAH4FNUfLS/N7Ui7tvagBso5j/3xUmBUUu7MfT74qT5vagBFAwfqaGHT60LuwenWkbdx060APwK5bwl/wAhfxZ/2Fj/AOiYq6j5vauW8JZ/tfxZjH/IWP8A6JioA6acfuj+H86kwKin3eUenb+dSfN7UAIAMt9aGHymgbsnpSNu2npQA/ApoHzGl+b2pBu3HpQAkg/dP/umlQfu1+gpJN3lP0+6aE3bF6dBQAuBvP0pSBg0nzbj06UHdg9KAFA4FJj5/wAKBuwOlHzbu3SgB2BUcA/crT/m9qjg3eSvSgB5HzCnYFNO7cOlL83tQAmRvHPalyPWk2jcOB0pdo9BQAikbRzQSNw5oVRtHAoKjcOBQA7I9ajhI2tz/G38zT9o9BUcKja3A++38zQA8kZXnvTsj1ppUZXgdaXaPQUAIpGDz3oYjjnvQqjB4HWhlHHA60AcvL/yVK3/AOwS3/o2o9XuIbf4haFJPNHEn2e7G6Rgo6Q+tSSgf8LRt+P+YS3/AKNrcuNNsNQZlvbK2uQjfKJolfbwOmRR1GjzTX7i4uLnxTq2lMDpss9hazzbmRJAj/vm3KM7QrBSwzwD6V0Hh7SprfWri6hbQ7CyazaKW20iYsGfIKyFdqgEDcM9Tn2FdqsMMVusCRIsKqEEaqAoXpjHTHtVez0rTtPZmstPtbZmGGMMKoSPfAoWmn9bCZwfheKPw9runaW1ppV69wsipqtg2J3IG7NwvU5GcnJG6rnhqLRLuS8utZW1fXo76RZGucGWIhvkEeeVXbjG3A5Ndja6Zp9nPJNaWNtBLJ994olVm78kDnmiXTbCW8S9lsbZ7pMbZ2iUuv0bGRTvqmD1OMt9F0zWPiZ4jGo2cV2iW1sFinG+MZU87D8pPuRkdqd410jRtN8Am0mEE0lnGq2sl4VeVRvX7rNz+VdwsESTPMsSCVwAzhRubHTJ71Xu9N0/UJlF7YW1y0a/K00Kvtz6ZHHSl0sget7nLeNhY6jbeG1luENo2rxh5I5towI5MjcD07Hn2qHTNJ0m61/xDZ2Wn2Uui/Z7cmBIVa3+0jfkquNu7b5ece1beseF7S/g0u2gtrSKzs74XUlv5I2OoVwRtAxnLZ/Ctu2tbezgWC1gighX7scSBVH0ApW0f9dENvb0/Vs474c2ehQ+GdOktbXTo9SW38u4aKNFm3KcMGIGeo70mjf2NZfEbVEsPsEAls4iVg2Lvcu2cgdT+tdZHpthDeSXUVjbJcyA75liUO2euTjJqGPQdGhmWeLSbBJVbesi2yBgfUHHWnd3TJaurHn00Gkz+HPEVzqvlN4gjnnEcj/8fET5/dCI/eUfdxt4OfrWlY6Rb6v42uF1u1ju5Y9GtC8M43pvLSZJQ8E8dSMjnHWu2fTbCa8S9ksbZ7pPuztEpdfo2MipdkS3O8RIJXXBcKMkDoCfxo6W/raxT/r70zgrBtNn+Ca/2/PONNNiVuJEYlwgOODySenrXdWHkf2dbfZmLW/lJ5RJJJXAx19qd9ktvsptfs8X2crtMWwbCPTHTFSrjaMDAxwKOrYn5GN4v/5E/V+cf6JJz/wGuS0yS4XX/CrXOpW2rZgZIo7aMRfZcxjMjAM27j5eSOvQ16JIiSoYpEV0cEMrDII9CKr2el6fpzM1lYWtsX4YwQqm764FEdG3/XX/ADE1f8f0/wAjhPCfhTSNY0W/murfdctqU7Jcg5lhKyZHlsc7On8OM85rQ8RrpFt4z8OXR+wx3v2l1mnbYJSvlNgM3XH1rsoYooUKwxJGpJYhFAGT1PFUrrRdIup/OutKsp5ZDhpJLdGY8dyR7UraJdrfgN638zkPFZnuvGdjBNBpNzpxsWkgj1SUrA8u/wCYjCsrMF24z0BOO9VNU8OrH8LdXF/NFKLaK6ltFsbuXyoUYZEeQV3BTwAQQBxXoVxp9ld2y21zZ280CkFYpIlZRjpgEYpYbGzhszaRWkEdqQQYVjATB6/L05oa91opS95P+trFLQdHs9KslNoJx5yIX825kl6DtvY469qn1qS4i0O/ktM/aFt3MWBzu2nGKu8KAAMDoAKWnP3rkw92x5ZapoCXHgqSxitX1KeVZJ7hEDTMfLO4yP1zuz1P8qrvY3usTa6k66FHqgvZUiu725dLm2wf3Rj+U7VAwRtOD36mvUYNOsLdnaCytoi0nmMUiVcv/eOB196jvdK0y7kW4vNOtLiVcBXlhV2HPYkU+t/66f5B/X5/5nG+KdMkGopqch0TVHgsfKk0/VWCruGW3xEggFuh47LzxT9RvrLVR4Qk1GF4NCvYmd4Lknb5uxTEkuTgjG/g5BIFdldaXp988bXljbXDR/cM0KuV+mRxUtxb295A9vcwRzQtw0cqBlPfkHil0A4fxrZ6SfCdpaackEdm2rWilLRtiqTMmdu3G38Mc+9dJaeGdG0q8nvLS2jtUlg8qeJAFikAOdzrjluo3HsTWilhZQ2qW0dnAlvGwZIljAVTnOQMYBzzU8kaSxtHIiujDDKwyCPQijv/AF0sHX+u5xvgw6Xa6z4itNONlFF9rUxw22xVx5YzhVrk9PsdLj8F6ZPZCJ/ED6ghhkD7p1PnfMoPVU2bvl4GK9RttE0mznEtrpdlBKowJIrdFYA+4FZ3hrwza+HNLjVre0e9jD77mKEK7gsT1xn0oWjT7W/AVvda8/zv/mYF9ovh2H4kZ1HTNKWG603cpnt49skolO48jBbDLz1qz8QIdHXRbSWWOwFzDd2n2d3VN8afaI87CeQMeldbd2FlqMape2dvcoDlVniVwD+IqK40fS7x0N1ptnO0aBFMsCsVX0GRwPaktku3+dyr63/rsc94pktLzVfDy3kscmiTTyCbLAwySbD5av2K5zweCQK5bW7a1Fl4ptdMxHop+yBVtm2xpMW+fy8cLxtzt7+9enHTbAWBsfsVt9jx/wAe/lL5fXP3cY6806Oxs4rRbWO0gS2HSFYwEHOenTrRYT2/r+v6Zy1np9npHxGittPt47aKbS2eVYht8xhIAGb+83+0efeuxPTio/KiM4l8tPNC7Q+0bsemfSpKfSwPe55RJDp0nga8vZxAfFwlcLKcfalut+EVT94LnAwONvtW34h8P2N14s8NyXQufOupJvO2XsyDIhP3QHAXp2xmuwXT7CS7XUTY232vHE5iXzBxj72M9OKsvHG8sbvGrOmSjEAlexx6UW0B6jLW2is7WO2h3+XGu1d7s5x7sxJP4msDx5pdtqfg7UxNZQXMsVtI0PmRByjY6rkcH3FdLSD5h060pK6sOL5WmcBrFtoK/DHU5NGgsIRPZIZWs0RCc45O3v8AWpI9NtdE8XaCmlW8cD3NhOJmUfNOVVCpkbqxBPU88118Ok6ZbLIkGnWkSzf6wJCqh/8AewOfxqyYIjIkhiQugIRtoyoPUA9qpu7b7/5P/MS0il2/4H+R5NoGn32qWGn3IOhW+ri6WSa9e4f7buEnzowKZ5GV25x0x0Feu1ROlaZPefbX060a6VuJ2hUvkdDuxmrpOMe9F9LB1ucNf2ej3XxHvzrS2zwJpduUjuiPLY+ZLklW4Yj9M1jaRGk0Hhu21v5tCc3ht47sfu3xIfs4cNwR5eSob0HfFekXeladqDo97YWty6DCtNCrlfpkVJcWttfW7QXVvFPCTzHKgZTjpweKlaIb1d/62seZXKRxS6hb2b+V4W/tW2SQQkiJVIPmquOBHnZnHHJ96vXNvY2muaxFoMdvFp39iyNdx2gCwiTnYcL8u7GffFd+tnaxWgtEtoVtsbPJVAEwe23pim22n2VnbNb2tnbwQNndFFEFU565AGKb2a/ra3/BBOzv/W9zzjwUEOq6ePEyRNfGzjbR26wLFtGRHnpL/ePUjGOK9OYjHXuKgNraymNHtYWFuQYgUB2HHVfT8KnZRjoOtNu5KQ7I9aaCNx5pdo9BSBRuPApDBiNp5p2R601lG08Cl2j0FADMj7Qef4B/OnMRtPPambR9oPA+4P509lG08DpQAuR60mRv69qXaPQUm0b+g6UAKSMHmhSNo57UFRg8CkCjaOB0oAaxHnx89j/SpMj1qJlHnR8Dof6VJtHoKAEUjaOaCRuHNCqNo4FBUbhwKAHZHrTVI29aXaPQUiqNvQUANlIzHz/GKkyPWopVGY+B98VJtHoKAEUjB57mhiOOe9CqMHgdaGUccDrQA7I9a5bwl/yF/Fn/AGFj/wCiYq6jaPQVy3hIA6v4s4/5ix/9ExUAdNOR5R59P51JketRTqPKPA7fzqTaPQUAICMtzQxG080BRk8ChlG08CgB2R600EbjzS7R6CkCjceBQAkhHlPz/CaVCPLXnsKSRR5T8D7poRRsXgdBQAuRuPPalJGDzSbRuPA6UFRg8CgBQRgc0mRv69qAowOBRtG/oOlADsj1qOAjyV5p+0egqOBR5K8CgB5I3DmnZHrTSo3DgUu0egoAi3zbh+6Xp/f/APrUu+b/AJ5L/wB9/wD1qk/jH0paAIVebaP3S/8Aff8A9agvNuH7pf8Avv8A+tUq/dFB+8KAI983/PJf++//AK1MieXacRL95v4/f6VYqOH7jf77fzNADS82R+6Xr/f/APrUu+b/AJ5L/wB9/wD1qkPVfrS0AQq82D+6Xr/f/wDrUF5uP3S9f7//ANapV6H60N2+tAHJytJ/wtC3PljP9ktxu/6a/SulR5d8n7pfvD+P2HtXPS/8lSt/+wS3/o2ulj/1kv8AvD+QoAazzY/1S9R/H/8AWpd83/PJf++//rVI3T8RS0AQh5sn90v/AH3/APWoZ5tv+qX/AL7/APrVKPvNQ33TQBHvm/55L/33/wDWpgaXz2/dLnaP4/c+1WKjH/Hw3+4P5mgBrPNtP7pen9//AOtS75v+eS/99/8A1qkb7p+lLQBDvm3f6pen9/8A+tSl5sH90v8A33/9an/x/hSn7p+lAEYebA/dL/33/wDWpjPL5yfulzg/x/T2qcdBTG/16f7rf0oATfN/zyX/AL7/APrUivNtH7pen9//AOtU1Iv3R9KAIi824ful/wC+/wD61Lvm/wCeS/8Aff8A9ann74p1AEKvNt/1S/8Aff8A9amyNLujzEv3v7/sfap1+6KZJ96L/f8A6GgBN83/ADyX/vv/AOtSK82P9UvU/wAf/wBapqRen4mgCIvNx+6Xr/f/APrUu+b/AJ5L/wB9/wD1qe3b606gCEPNz+6Xr/f/APrU2Z5fL5iXqP4/ce1Tr3+tMm/1f4j+YoATfN/zyX/vv/61IHmyf3S9f7//ANapqQdW+tAETPNt/wBUv/ff/wBal3zf88l/77/+tT2+7TqAIQ824/ul/wC+/wD61JK83lPmJcbT/H/9aph9402b/Uyf7poAYHm2j90vT+//APWo3zbj+6Xp/f8A/rVKv3R9KP4z9KAIi82D+6X/AL7/APrUoebA/dL/AN9//WqRvumgdBQBFvm3f6pen9//AOtS75v+eS/99/8A1qk/j/CloArwvL5KYiXGP7//ANanb5tw/dL0/v8A/wBanQf6hPpTz98fSgCPfN/zyX/vv/61IrzbR+6X/vv/AOtU1Iv3RQBEXm3D90v/AH3/APWpd83/ADyX/vv/AOtUh+8tLQBXieXDYiX7x/j9/pTi82R+6Xr/AH//AK1Oh6N/vn+dPPVfrQBHvm/55L/33/8AWpFebn90vX+//wDWqakXv9aAIi83H7pev9//AOtS75v+eS/99/8A1qkbt9aWgCujS+ZJ+6XqP4/b6U5nmx/ql6/3/wD61OT/AFsv1H8qe3T8RQBHvm/55L/33/8AWpA824/ul/77/wDrVNSD7zUARM820/ul/wC+/wD61Lvm/wCeS/8Aff8A9apG+6aWgCvul88/ulztH8fv9KczzbT+6Xp/f/8ArU7/AJeD/uD+dPb7p+lAEe+b/nkv/ff/ANak3zbv9UvT+/8A/Wqak/j/AAoAjLzY/wBUv/ff/wBakDzbR+6X/vv/AOtUx6GkX7o+lAEDNL5yfulzg/x//Wp++b/nkv8A33/9alb/AF8f0P8ASpKAIVebaP3S/wDff/1qC824ful/77/+tUq/dH0oP3hQBHvm/wCeS/8Aff8A9akV5sf6pf8Avv8A+tU1Iv3aAIJHlymYl+8P4/8A61P3zf8APJf++/8A61LL1j/3xUlAEKvNj/VL1/v/AP1qGebj90vX+/8A/WqVeh+pobt9aAI983/PJf8Avv8A+tXMeE2kGr+K8Rg/8TY/xf8ATGL2rrK5bwl/yF/Fn/YWP/omKgDoZml8o5iXt/H7/Sn75v8Ankv/AH3/APWpZ/8AVH6j+dSUAQh5sn90v/ff/wBahnm2n90v/ff/ANapR1b60P8AdNAEe+b/AJ5L/wB9/wD1qQPNuP7pf++//rVNSD7xoAhkeby2/dL0P8f/ANalR5ti/ul6D+P/AOtUkn+qf/dNCf6tfoKAI9824/ul6f3/AP61KXmwf3S/99//AFqk/jP0oP3T9KAIw82B+6X/AL7/APrUm+bd/ql6f3//AK1Sj7o+lH8f4UAR75v+eS/99/8A1qZC8vkriJf++/8A61WKjg/1K0ANLzbh+6X/AL7/APrUu+b/AJ5L/wB9/wD1qkP3h+NLQAzau4cDpS7V9BRk7hx29aXJ/u/rQA1VXaOBQVXcOBSqTtHH60EncOP1oAXavoKjhVdrcD77fzNSZP8Ad/Wo4Sdrcfxt39zQA4quRwOtO2r6CkJORx39aXJ/u/rQA1VXB4HWhlXjgdaFJweO/rSsTxx39aAOXlUf8LRtxj/mEt/6Np+vajeLrWnaHpsqW9xftJJJcmMOYYY1XcVB4LksoGcgZJIPSmSk/wDC0bfj/mEt/wCjan1zRby+1Ky1XTJootS0+Rtiz58uaN1AeNiORnAIYA4IHBoAfeXUnhjS993d3WrTTTxw26yJEkjyO20LlFRcd844AJ5qFfEd1a3dxY6tpcVtdpaPeQ/Z7kzRSomAw3FEIYEjjbjB6nml1LTNZ1nSUNyLG01G2uY7m1EUrzRb0OQHYqpw3KnC8ZzzVS+0rUrg3utawtpFLBp81vb29rK0qqGALOXZVJJ2gYxxzyc8TJtJv1/LT8RxV2l/W/8AkO0zxbd3Y0m5vNEFnYattFvIbkPKrMu4B0C4APOCGJ6ZA7LCyn4iSLd6TBFeGwJhvIb15N0QfG1oyiqpz6E/WqHhfTNW1bRfDEuoJZQWNjbwzxJbzNK8zCMBd2UUJjOcDd6Vdl0/xO3i5dYFnpHkJbm12G+l3FC+7d/qcZx/D+tXKNp283+X9fIlax+4uXuv3f8AaV5Z6RpUV81iqtdNNdeSASNwRPkbc2Oedo5HPpUn8YRSPow0u2hnm1iEyW4u7j7Om1RkgsFY7uRhQp6Hpiq2p+C/M8QXuqRaHoOrC92l01RdrRMox8r+W+QR2wMHuc1o6lo8s+m29hDoOhXNukahrG6JWCMjOChEbdOQPlH9KlbalaXN22aaWyR7m3WCcr88avvVT7NgZHocA46gdKfcCVbeRraKKScKdiSOUVj2BYAkD3wfpWV4X0WXw94cg0ySbzfK3lQGZljUsSI1LEkqoIUZ7AdOlal010trIbSKKS4C/u0mkKIT7sASB+BqpWvoJHN+DPs0em6oYdMjsZEv5jcRR3Tzq8vBZgzAHB44wMVXsvGl1dWmnahNoQttNvrgWyyNdAyq5JUN5YXBQkddwP8As1Z8N6Zr2ntqMWoW+mrFdzyXIe3upHZWcAbcNGoxx1z+FRr4WvV8MaNphlg82wu0uJGydrKrMxA4znnvUq+l/L/gh3+f/AOsCLjoK5x9Ruh8SItK8wfYjpZuPL2D7/mbc5xnp2ziujBOPu/rXLappWtJ41g1zTIrCdRYG1aK6uHiOd+7IKxvmmt1/XRj+y/l+a/Qn8cEx+EtQZtMt9Qs1gd7qGW7e3JjUZO1lRiTx7fWqHjJ0h8EWUsML7UubIrEh3Njzo8KM9T2q94htPEGr+F59OhtNMS5vLeSCcveSbItwwCpEWX69wtRX+k63qvhSOymi0+G+gngliCXLvE4idGG5jGCudpHCnHvStq/kGmnz/QX/hJ7m2vLqz1TSo7W6jsnvYEiufNWVF4YE7BtYErkYI54JpNJ8SanqUel3cvhx4dP1FFKyLceZLCSuQXQLgJ/tbiemQOlNk0DVdTu7zUNTa0hunsZLK2t7eVpI0D4LOzsqkkkKMBeAO+eNvQ7GbS/D+n6fKVaW2to4XZDwSqgEjPbimttf63/AEsS/L+tv+CZeqa/faNLHPd6TCdLadITOl3mZSx2hjFsxjJHR889KrXHibUp9b1PTNL0FLl9NZC0s12Ikk3R7gowjNu56Yx7jpWBL8O9QngaJ7XQpLkXq3P9rTKz3cyiQPgkrlDgYyGYcYwK63TdGuNP8RaxqEjxNFqE8TxKpO5QsQU7uPUdqFt/Xl/wRvfQLLxGLnXLTTp9Oltftlh9sgab5XyCA8bIR8rLuU9e/tVrQNVGt2Et4LbyoPtEsULFt3mojFd/TgEg4HPGD3rD+IC3D2mmnS5kj1sXax2YPJIkBSTIyOAhZv8AgArp9Os4tN023sbdNsNvGsSDPYDAoWt3/Xf8NED0dv67fjuWGVeOB1p21fQU1ieOO/rTsn+7+tADVVeeB1psyr5fQdR/MU9SeeO/rTJifL6dx39xQBJtX0FNCrk8DrTsn+7+tICcnjv60AIyrt6CnbV9BTWJ29P1p2T/AHf1oAaFXceBSSqvkvwPun+VOBO48frTZSfJfj+E9/agByqu0cDpSbV3HgdKVSdo+Xt60ZO48dvWgAKrg8CgKuBwKCTtPH60AnA4/WgBNq7+g6U7avoKTJ39O3rS5Pp+tAEcCr5CcDpTtq7hwOlNgJ8hOO3rT8ncOO3rQAu1fQU1VXaOBTsn+7+tIpO0cfrQAhVdw4FO2r6CkJO4cfrS5P8Ad/WgCOJVw3A++f504quRwOtNiJw3H8Z7+9PJORx39aAF2r6Cmqq88DrTsn+7+tNUnnjv60ADKvHA607avoKRieOO/rS5P939aAI0VfNl4HUfypzKuOg601CfNl47jv7U5icdO/rQA7YvoKaFXceBTsn+7+tNBO48frQAMq7TwKdsX0FIxO08frS5P939aAI9q/aDwPuD+dPZV2ngdKZk/aDx/AO/vT2J2njt60AG1fQUm1d3QdKdk/3f1pMnf07etAAVXB4FAVdo4FBJweP1oBO0cfrQAxlXzo+B0P8ASpNi+gqNifOj47Hv9Kkyf7v60AIqrtHApCq7hwKVSdo4/WkJO4cfrQA7YvoKaqrt6CnZP939aRSdvT9aAGSquY+B98VJtX0FRyk5j4/jHepMn+7+tADVVcHgdaGVeOB1pVJweO/rSMTxx39aAHbV9BXLeElB1fxZkf8AMWP/AKJirqcn+7+tct4SJ/tfxZx/zFj/AOiYqAOlmVfKPA7fzqTavoKjnJ8o8enf3qTJ/u/rQA0KuTwKGVQp4FKCcnj9aRidp4/WgB21fQUgVdx4FLk/3f1pATuPH60ANkVfKfgdDSoq7F4HQUSE+U/H8J70ITsXjsO9ABtXceB0pSq4PAoydx47etBJweP1oAAq4HApNq7+g6UoJwOP1oyd3Tt60ALtX0FRwKvkrwKkyf7v61HAT5K8frQA4qu4cCnbV9BSEncOP1pcn+7+tAB/GPpS0zaNw+lLtH+TQAq/dFB+8KaqgqKCo3CgB9Rw/cb/AH2/maftH+TUcSja3++3f3NAEh6r9aWmFRkfWnbR/k0AIvQ/Wlbt9aaqjB+tDKOPrQBzMv8AyVK3/wCwS3/o2ulj/wBZL/vD+QrmZQP+Fo24/wCoQ3/o2ulRR5kv+8P5CgCRun4ikdFkRkdQyMMFWGQRSMox+NO2j/JoAZDFHDGIokWONAFREGAoA4AHYU9vummhRk0Mo20APqMf8fDf7g/maftH+TUYUfaG/wBwfzNAEjfdP0paYyjafpS7R/k0AH8f4Up+6fpTdo349qUqMGgBR0FMb/Xp/ut/SnBRgUxlHnp/ut/SgCWkX7o+lJtH+TSKo2j6UAKfvinUwqNwp20f5NAAv3RTJPvRf7/9DSqo202RRuj/AN/+hoAYLCzF+b8WkAvCnlm48seYV/u7sZx7VOvT8TRtH+TTVUY/GgBW7fWnUxlAx9adtH+TQAL3+tMm/wBX+I/mKUKOfrTZlHl/iP5igCWkHVvrRtH+TTQoyfrQA5vu0tMZRtp20f5NAAPvGmzf6mT/AHTQFG40kqjyX/3T39qAHr90fSj+M/SkVRtH09aTaNx+lADm+6aB0FIVGDQFGB/jQAv8f4UtM2jd+FO2j/JoAZB/qE+lPP3x9KjgUeQn0p20bh9KAH0i/dFJtH+TSKo2igBx+8tLTCo3CnbR/k0AMh6N/vn+dPPVfrUcSjDf75/nTioyPrQA+kXv9aNo/wAmmqo5+tADm7fWlphUcfWnbR/k0AMT/Wy/Ufyp7dPxFRoo82X6j+VOZRj8aAH0g+81G0f5NNCjcaAHN900tMZRtNO2j/JoAZ/y8H/cH86e33T9Kj2j7Qf9wfzp7KNp+lADqT+P8KTaP8mk2jd+FADz0NIv3R9KQqMH/GgKNooAa3+vj+h/pUlRMo86P6H+lP2j/JoAVfuj6UH7wpqqNooKjcKAH0i/do2j/JpqqNtACS9Y/wDfFSVFKozH/vipNo/yaABeh+pobt9aaqjB+tDKOPrQA+uW8Jf8hfxZ/wBhY/8AomKuo2j/ACa5bwkAdX8Wf9hY/wDomKgDpp/9UfqP51JUUyjyj+H86k2j/JoAB1b60P8AdNNCjJoZQFNAD6QfeNG0f5NNCjcaAFk/1T/7poT/AFa/QU2RR5b/AO6aVFGxfoO9ADv4z9KD90/Sm7Ru/ClKjBoAUfdH0o/j/CkCjApNo3fhQA+o4P8AUrT9o/yajgUeStAEh+8PxpaYVG4U7aP8mgCLzTuH7mTp6D/Gl84/88ZPyH+NSH74+lL2oAhWU7R+5k/If40GU7h+5k/If41Kv3RQfvCgCPzj/wA8ZPyH+NMilIU/upPvN2HqferFRw/cb/fb+ZoAaZTkfuZOvoP8aXzj/wA8ZPyH+NSHqv1paAIVlOD+5k6+g/xoMp4/cydfQf41KvQ/Whu31oA5OWQ/8LQtz5b/APIJbjj/AJ6/Wuie7jtknnnzFEnzO8hCqoAHJJOBWDL/AMlSt/8AsEt/6Nqv431K3gGn6ZcLO8V9eqZlggeZvJjAdvkQFiCwRTx/FSA6iO7S4gSaEGSJwGR0IZWB6EEHkVJ5x/54yfkP8a81sNTuf+EL1S30h7uOfw9fedDEYXhea1DeYsexwGwYyU5HVa6SDVvt/iO81Jb9o9F06xXcVf5HkkAkLEd9qBcf79O63/ra/wDwA/r8bHSiU5P7mT8h/jVFtaj/ALaOlfY73zfJ87zfJ/dYzjG/ON3tXEWOq3UXibQp7OPxDHZanK6SPqc6vDOpQurInmMYzwCBtXjjA6VuQxy2XxJa2jvb17e405p3hmuXkRX8wDKqxIXj0o6r5/kHp/Wpqah4lh03VbOxuNPvwLyUQxXCopi3kE7Sd2QcA9q0xKfPY+VJ90dh6n3rnfGX/H/4X/7DCf8AouSk8UXtu+p2+l7dZubt4jOLXSZxC+wHG9n3phcnGN3JPQ44OgdTY1LWrfTWs47iKcNeXAtotqg/OVZhnngYU1auLtoLeSVbS4mKKSI4wpZvYZIGfxrzD7VqWreG/DsVzdXMV1D4jktFmmCmdEQTqu4glS4UYJycnnmus0Az6d4w1bQ1vLm7so7WC6Q3U7TSRO5dSu5iTghAQD059aFqv67JjkrP+u7Rq6Lr0Ot2808FpdwmGZoJIp0VXV1xkHBI7jvWkZjg/uZPyH+Nct4UlNvZeI5lXcY9UuWC+uFU4rmtHvfEWo2+mazbWPiB7y4lWS4aa5h+xtCx+ZRH5vy4HQhQ2Rz1oi+ZLzS/FC2T+f4HpwmOB+5k/If40xpT5yHypOh7D296sDpUbf6+P/db+lACecf+eMn5D/GkWU7R+5k6eg/xqakX7o+lAERlO4fuZPyH+NL5x/54yfkP8aefvinUAQrMdv8AqZPyH+NNklJaP91J970Hofep1+6KZJ96L/f/AKGgBPOP/PGT8h/jSLKcf6mTqew/xqakXp+JoAiaU8fuZOvoP8aXzj/zxk/If409uo+tOoAhEp5/cydfQf402aUmP/VSdR2HqPep17/WmTf6v8R/MUAJ5x/54yfkP8aQSnJ/cydfQf41NSDq31oAiaU7f9TJ+Q/xpfOP/PGT8h/jUjfdpaAIRKdx/cyfkP8AGkllJif91J909h/jUw+8abN/qZP90/yoAYsx2j9zJ09B/jR5p3H9zJ09B/jUq/dH0oH3z9KAIzMcH9zJ+Q/xoExwP3Mn5D/GpG+6aB0FAEXmnd/qZOnoP8aXzj/zxk/If41J/H+FLQBXhlIhT91IePQf407zTuH7mTp6D/GnQf6hPpTz98fSgCPzj/zxk/If40iynaP3Mn5D/GpqRfuigCIyncP3Mn5D/Gl84/8APGT8h/jUh+8tLQBXilIDfupPvHsPX604ynI/cydfQf406Ho3++f5089V+tAEfnH/AJ4yfkP8aRZTz+5k6+g/xqakXv8AWgCIzHj9zJ19B/jS+cf+eMn5D/GpG7fWloArpKfMk/dSdR2Hp9ac0px/qZOvoP8AGnJ/rZfqP5U9un4igCPzj/zxk/If40glO4/uZPyH+NTUg+81AETSnaf3Mn5D/Gl84/8APGT8h/jUjfdNLQBX80+eT5Un3R2Hr9ac0p2n9zJ09B/jTv8Al4P+4P509vun6UAR+cf+eMn5D/Gk847v9TJ09B/jU3ak/j/CgCMzHH+pk/If40CY7R+5k6eg/wAalPQ0i/dH0oAgaU+dGfKk6HsP8af5x/54yfkP8aVv9fH9D/SpKAIVlO0fuZPyH+NBmO4fuZPyH+NSr90fSg/eFAEfnH/njJ+Q/wAaRZTj/UyfkP8AGpqRfu0AQSSklP3Un3h2H+NP84/88ZPyH+NLL1j/AN8VJQBCspx/qZOvoP8AGhpTx+5k6+g/xqVeh+pobt9aAI/OP/PGT8h/jXMeE5CNX8V/u3P/ABNj0x/zxi966yuW8Jf8hfxZ/wBhY/8AomKgDoZpSYj+6kHTsPX60/zj/wA8ZPyH+NLP/qj9R/OpKAIRMcn9zJ+Q/wAaGlO0/uZPyH+NSjq31of7poAj84/88ZPyH+NIJTuP7mT8h/jU1IPvGgCGSU+W37mToew/xpUlOxf3MnQdh/jUkn+qf/dNCf6tfoKAI/OO4/uZOnoP8aUzHB/cyfkP8ak/jP0oP3T9KAIxMcD9zJ+Q/wAaTzTu/wBTJ09B/jUo+6PpR/GPpQBH5x/54yfkP8aZDKRCv7qQ/gP8asVHB/qVoAaZTuH7mT8h/jS+cf8AnjJ+Q/xqQ/eH40tADNvzDk9PWl2j1P50Z+YcHpRu9jQAir8o5P50FfmHJ/OlU/KODQT8w4NAC7R6n86jhX5W5P327+5qTd7Go4W+VuD99v5mgBxXkcnr607aPU/nTSeRwetO3exoAaq8Hk9fWhl6cnr60KeDwetKx6cHrQBy8o/4ujb8n/kEt3/6a1tjTLR9Y/tJoybuKMwJIXPyo20kAZxyQOevArElP/F0bfg/8glv/RtdKjfvJeD94fyFAFX+yLJNTn1JYiLu4iSCV95w6KSVBGccbjzjPNRab4d0rSdJfS7O1CWT7t0Tuzhs8EEsSSMYGOwAHQVoseOh607d7GgDnrLwRoNjd2tzFbTtNZHNq013LL5Axjam5jtXH8I44HHAofwXpJ1P+0zLqv2wcCT+1bngbs7ceZjbn+Hp7Vvg8ng0Mfl6GjzAxdW8I6XrV5HdXr6iZY2DxiLUriJUYAgMqo4AOCeQM80l54V0u/u7aScXYntYPKjnjvZo5ShPKs6sGcHAOGJrd3exqMN/pDcH7g/maAMQ+DNBj0hNMgs3t7WK4N1EtvPJE0UpJJZGVgV+8eAQMHHSrVr4c06zsbm0gFyguTmaf7XKZ5DjGTNu35A4B3cDgVqMflPB6Uu72NAGJpHhXTNDupZbFr8NKS0izahPMrMerFXcjdwOcZot/CelWV39ptPt1vhzIIIb+dINx5P7oPs5PJG3FbOfn6HpSluDwaAALwOT+dMZf36cn7rd/pTw3A4NMY/v04P3W/pQBJtHqfzpFX5RyenrS7vY0in5RwelACFfmHJ/OnbR6n86aT8w4NO3exoAaq/L1P502Rfmj5P3/X2NPVvlHBpkh+aPg/f/AKGgCTaPU/nTVXjqevrTt3saap46HqaABl6cnr607aPU/nTWPTg9adu9jQA1V68nr602Zf3fU9R39xTlPXg9abM37voeo/mKAJNo9T+dNC8nk9fWnbvY00Hk8HrQAMvy9T+dO2j1P501j8vQ07d7GgBoX5jyfzpJV/cvyfunv7U4H5jwabKf3L8H7p/lQA5V+Ucnp60m35jyenrSq3yjg9KTPzHg9KAFK8Hk/nQFGByfzoLcHg0BuBwaAE2/P1PT1p20ep/Okz83Q9KXd7GgCOBf3Ccnp607b8w5PT1psDfuE4PSnZ+YcHpQA7aPU/nTVX5Ryfzp272NNU/KODQAFfmHJ/OnbR6n86Qn5hwaXd7GgCOJeG5P3z396cV5HJ6+tNiPDcH75/nTieRwetADto9T+dNVevJ6+tO3expqnrwetAAy9OT19adtHqfzpGPTg9aXd7GgCNF/ey8nqO/tTmXjqevrTUP72Xg9R/KnMeOh60AO2j1P500L8x5P507d7Gmg/MeDQAMvynk/nTto9T+dIx+U8Gl3exoAj2/6QeT9wd/ensvynk9PWmZ/0g8H7g/nT2Pyng9KADb7n86Tb83U9PWl3expM/N0PSgBSoweT+dAX5RyfzoLcHg0BvlHBoAYy/vo+T0Pf6VJtHqfzqNj++j4PQ/0qTd7GgBFX5RyfzpCvzDk/nSqflHBpCfmHBoAdtHqfzpqr8vU/nTt3saap+XoaAGyrzHyfvjvUm0ep/Oo5TzHwfvipN3saAGqvB5PX1oZenJ6+tKrcHg9aRj04PWgB20ep/OuW8JDOr+LOv8AyFj3/wCmMVdTu9jXLeEjjV/FnB/5Cx/9ExUAdLMv7o8nt396k2j1P51HMf3R4Pb+dSbvY0ANC8nk/nQy/KeT+dKG5PBpGPyng0AO2j1P50gX5jyfzpd3saQH5jwaAGyKPKfk9D3pUX5F5PQd6JG/dPwfumhG+ReD0FABt+Y8np60pXg8n86N3zHg9KC3B4NAAFGByfzpNvzdT09aUNwODRn5uh6UALtHqfzqOBf3K8n86k3exqOBv3K8GgBxX5hyfzp20ep/Omk/MODTt3saAA/fH0pe1Mx8w+Y9KXb/ALRoAVfuig/eFNUfKOTQR8w5NAD6jh+43++38zT9v+0ajiHytyfvt/M0ASHqv1paYRyPmPWnbf8AaNAAvQ/Whu31pqjg8nrQy9OT1oA5mX/kqVv/ANglv/RtdLH/AKyX/eH8hXMyj/i6Nvyf+QQ3/o2ulRf3kvJ+8P5CgCRun4ilpjDjqetO2/7RoAB95qG+6aaByeTQw+XqaAH1GP8Aj4b/AHB/M0/b/tGowP8ASG5P3B/M0ASN90/SlpjL8p5PSl2/7RoAP4/wpT90/Sm4+fqelKV4PzGgBR0FMb/Xx/7rf0pwXgfMaYw/fpyfut/SgCWkX7o+lJt/2jSKvyjk9KAFP3xTqYR8w5NO2/7RoAF+6KZJ96L/AH/6GlVfl6mmyD5o+T9/+hoAlpF6fiaNv+0aao46nrQArdR9adTGHTk9adt/2jQAL3+tMm/1f4j+YpQOvJ602Zf3fU9R/MUAS0g6t9aNv+0aaByeT1oAc33aWsHxVq93oun2r2MUM1xc3kNqgnYhFMjBcnHPGaraL4juZ9T1jTNYjtoLjTEjlkmtpC0JRwSM7uVYbTkHtijpcDph9402b/Uyf7p/lWFpvivT9Sv4rVI72BrhC9s9xAY0uFHUoT145+hpYfE9lfXctrbQ3skYZ4vtYgPkF1yCu/6gigDeX7o+lA++fpXP6h4t07TLma3dbyf7KFN3JbwmRLYEZzIR04578c0uoeLdL07UYLAtc3N5cW/2iCG2hMjSpnGVxx7/AEoA32+6aB0FYNr4r0u8/s9Y5Jla/llgiV4ypWWMEvG/91htbj2qebxFpttPqEM9w8f9nRJLcuV+RQ+doz3PHT6UAa/8f4UtYmleI7TVr17MQ3tpdLGJRDeQmJ3QnG5R3GeK2tv+0aAGQf6hPpTz98fSuen8VWOnXEVvdQ30cJkWE3hgPkBycAF/97j0zW/j5h8x6UAPpF+6KwdZ1q7ttUtNG0qCO41K5jabM7lYoYlIBZsc8kgADqfpUj6vLpGkC513ykn3iNUs9z+cx+6qAjJJ6Yo8wNo/eWlrmx4y0pbG/u7n7VaHT0ElzBcQlZUQ9G29wfUelPsvF2nX90YIkvVZoWngaSAqLlB1MefvduPcUAbsPRv98/zp56r9awIvFOl/8I/ba0ssrWl5MkcIVCXZnbaBt65z19MGt0jleT1oAfSL3+tG3/aNNUdeT1oAc3b60tMK9OT1p23/AGjQAxP9bL9R/Knt0/EVGg/ey8nqP5U5hx1PWgB9IPvNRt/2jTQPmPJoAc33TS0xh8p5NO2/7RoAZ/y8H/cH86e33T9Kjx/pB5P3B/Onsvynk9KAHdqT+P8ACk2/7RpMfN1PSgB56GkX7o+lIV4PzGgL8o+Y0ANb/Xx/Q/0qSomH76Pk9D/Sn7f9o0AKv3R9KD94U1V+Ucmgj5hyaAH0i/do2/7Rpqj5epoASXrH/vipKilHMfJ++Kk2/wC0aABeh+pobt9aaq8Hk9aGHTk9aAH1y3hL/kL+LP8AsLH/ANExV1G3/aNct4SGdX8Wcn/kLH/0TFQB00/+qP1H86kqKZf3R5Pb+dSbf9o0AA6t9aH+6aaF5PJoYfKeTQA+kH3jRt/2jTQvzHk0ALJ/qn/3TQn+rX6CmyL+7f5j900qL8i/MegoAd/GfpQfun6U3b8x5PSlK8H5jQAo+6PpR/GPpSBeB8xpMfN1PSgB9Rwf6laft/2jUcA/cryaAJD94fjS0wj5hyadt/2jQBF9oj3Dlun90/4Uv2iP1b/vk/4VJ/GPpS0AQrcR7Ry3/fJ/woNxHuHLf98n/CpV+6KD94UAR/aI/Vv++T/hTIp4wp5b7zfwn1qxUcP3G/32/maAGm4jyOW6/wB0/wCFL9oj9W/75P8AhUh6r9aWgCFbiPB5br/dP+FDXEfHLdf7p/wqVeh+tDdvrQBycsyf8LQt2ycf2S38J/5610qTxh5OW+8P4T6Cuel/5Klb/wDYJb/0bXSx/wCsl/3h/IUANa4jx1bqP4T/AIUv2iP1b/vk/wCFSN0/EUtAEIuI8nlv++T/AIUNcR7erf8AfJ/wqUfeahvumgCP7RH6t/3yf8KYJ4/PY5b7o/hPqasVGP8Aj4b/AHB/M0ANa4j2nlun90/4Uv2iP1b/AL5P+FSN90/SloAh8+Pf1bp/dP8AhSm4jweW/wC+T/hT/wCP8KU/dNAEYuI8Dlv++T/hTGnj85Dluh/hPtU46CmN/r0/3W/pQAn2iP1b/vk/4Ui3Ee0ct0/un/CpqRfuj6UARGePcOW/75P+FL9oj9W/75P+FPP3xTqAIVuI9o5b/vk/4U2SeMtHy3Df3T6Gp1+6KZJ96L/f/oaAE+0R+rf98n/CkW4jx1bqf4T/AIVNSL0/E0ARNPHxy3X+6f8ACl+0R+rf98n/AAp7dvrTqAIVuI+eW6/3T/hTZp4zH1bqP4T6ip17/WmTf6v8R/MUAJ9oj9W/75P+FILiPJ5br/dP+FTUg6t9aAOU8caedc0zT7RLZ7mMalbSToARiJZAWJ6cAViL4YubWDxP4cs4pI9M1GHz7O65/dSEYaJm+9jgEdcAmvRm+7S0dGu//A/yHfVPseeeH9Pjk1PT21Cx8UJcWY3K17P5lsjhcHGGyQeccflUbWV5a+IFfQbHWNOD3JkvUlYGwlQj5yoyTuPBGAOetejD7xps3+pk/wB00763JsrWPNLvR5rLWdZ8+DxLdWuoTm4jbSrjCFWUAo6krgjGO+RjpW7YaWbHxrYz29tMmm2+iC0SRwSVYSAhD3zgfpXYL90fSj+M/SktLeX+TX6jet/66p/oc54qsftmhs+nRH7faTLe2yom0vKjbsZx/Fyp/wB41gXvh+81TwXeHy5YdWvbxb+SIMUf5WBWPcM4IRVHpnNehN900DoKVv6/r0X3B/X9fe/vOJ8N2ds2ti/ms/E0V1DCUR9Wk3oAxGQuGPPFdl9oj9W/75P+FSfx/hS0xWPIdXsPEeq2F3Bc2mtz3pvFZfLnCWRgWZSu1c/MdoBwQOhOeOfV1njG3luB/dP+FPg/1CfSn/xj6ULRWGzkdaS80/xbaeIrKzmv4PsjWV1bQL+9ALhldAcA4OQRkcHPao9Yku9Tg0jWYNKvA+nXnnGxlUCaRCpQkDJG4biQM846iuzpF+6KSVlbt/nf8w7+f+Vjy7xUlzqGn+IPEE9hc2MI0z7JFb3CgSyfOGLEAkAdAOeeelbtk91rmvaNftpt5p9ppsEmTdoFeVnUABQpPAAzkmup1PTrbVrCWwvEL2867ZFDFSR9RzVhoFa2NuC6oU2ZRiGAxjgjkH3p/wBfn/mNu6+/9P8AI850azYeOLjRdmdJ0i4fUIjgn95MPlTGONmZD9GFeiG4jyOW6/3T/hVLRdHs9GtpYrRHzJKzyySyGSSRvVmYksfrWkeq/WjokLrcj+0R+rf98n/CkW4j55br/dP+FTUi9/rQBE1xHxy3X+6f8KX7RH6t/wB8n/CpG7fWloArpPH5knLckfwn0pzTx46t1/un/CnJ/rZfqP5U9un4igCP7RH6t/3yf8KQXEe48t/3yf8ACpqQfeagCJriPaeW/wC+T/hS/aI/Vv8Avk/4VI33TS0AV/Pj88nLfdH8J9ac1xHtPLdP7p/wp3/Lwf8AcH86e33T9KAI/tEfq3/fJ/wpPtEe/q3T+6f8KmpP4/woAjNxHg8t/wB8n/CkFxHtHLdP7p/wqY9DSL90fSgCBp4/OjOW6H+E0/7RH6t/3yf8KVv9fH9D/SpKAIVuI9o5b/vk/wCFBuI9w5b/AL5P+FSr90fSg/eFAEf2iP1b/vk/4Ui3Ee3q3/fJ/wAKmpF+7QBBJPGSnLfeH8Jp/wBoj9W/75P+FLL1j/3xUlAEK3EeDy3X+6f8KGuI+OW6/wB0/wCFSr0P1NDdvrQBH9oj9W/75P8AhXMeE5kXV/FeSf8AkLH+E/8APGKusrlvCX/IX8Wf9hY/+iYqAOhmnjMR5bt/CfWn/aI/Vv8Avk/4Us/+qP1H86koAhFxHk8t/wB8n/ChriPaeW/75P8AhUo6t9aH+6aAI/tEfq3/AHyf8KQXEe48t/3yf8KmpB940AQyTxmNuW6H+E0qTxhF5boP4TUkn+qf/dNCf6tfoKAI/tEe48t0/un/AApTcR4PLf8AfJ/wqT+M/Sg/dNAEYuI8Dlv++T/hSfaI93Vun90/4VKPuij+P8KAI/tEfq3/AHyf8KZDPGIVGW/75NWKjg/1K0ANNxHuHLf98n/Cl+0R+rf98n/CpD94fjS0AMwdw+Y9KXB/vGjcNw57UbhQAig7R8xoIO4fMaVWG0UFhuHNAC4P941HCDtb5j99v5mpNwqOFhtb/fb+ZoAcQcj5j1p2D/eNNLDI+tO3CgBqg4PzHrQwPHzHrQrDB+tKzDjnvQBzWs6HrcviSDWdGvrCGRLU2zpeWzyggtuyNrrio0t/He+TGp+HOoz/AMS6f0H/AE3rqtwqNGHmS/7w/kKAOba38d451Pw51/6B0/8A8fpfs/jz/oKeHP8AwXT/APx+ulZhj8aduHrQBy4t/HeT/wATPw5/4Lp//j9DW/jvHOp+HP8AwXT/APx+umDDJoZht60Ac19n8ef9BTw5/wCC6f8A+P0wW/jvz2/4mfhzO0f8w6f1P/Teuq3D1qMMPtDf7g/maAOba38d7TnU/Dn/AILp/wD4/S/Z/Hn/AEFPDn/gun/+P10zMNp+lLuHrQBy/wBn8d7v+Qn4czj/AKB0/wD8foNv47wf+Jn4c/8ABdP/APH66bcN/wCFKWGDzQBzAt/HmB/xM/Dn/gun/wDj9Na38d+cn/Ez8OZwf+YdP7f9N66kMMDmmMw89P8Adb+lAHOfZ/Hn/QU8Of8Agun/APj9Itv472jGp+HP/BdP/wDH66jcPWkVhtH0oA5g2/jvcP8AiZ+HP/BdP/8AH6X7P48/6Cnhz/wXT/8Ax+ulLDcKduHrQBy62/jvH/IT8Of+C6f/AOP02S38d7o86n4c+9x/xLp/Q/8ATeupVhtFMkYbo/8Af/oaAOc+z+PP+gp4c/8ABdP/APH6Rbfx3jjU/DnX/oHT/wDx+uo3Cmqwx+NAHMm38d8Z1Pw51/6B0/8A8fpfs/jz/oKeHP8AwXT/APx+ulZhx9aduFAHLi38d8/8TPw51/6B0/8A8fpstv478vnU/DmMj/mHT+v/AF3rqFYc896bMw8v8R/MUAc59n8ef9BTw5/4Lp//AI/SC38d5P8AxM/DnX/oHT//AB+uo3Cmhhk/WgDmWt/HeOdT8Of+C6f/AOP0v2fx5/0FPDn/AILp/wD4/XSsw207cKAOXFv473H/AImfhz/wXT//AB+kkt/HflPnU/DmNpz/AMS6f/4/XUBhuPNNlYeS/wDun+VAHNC38d7R/wATTw50/wCgdP8A/H6Ps/jvcf8AiZ+HOn/QOn/+P106sNo+lJuG4/SgDmTb+O8H/iZ+HP8AwXT/APx+gW/jvA/4mfhz/wAF0/8A8frpyw2mgMMCgDmPs/jvd/yE/Dmcf9A6f/4/S/Z/Hn/QU8Of+C6f/wCP1024buval3CgDlYbfx35KY1Pw5jHfTp//j9O+z+O9w/4mfhzp/0Dp/8A4/XSQMPIT6U7cNw+lAHNfZ/Hn/QU8Of+C6f/AOP0i2/jvaMan4c/8F0//wAfrqNw9aarDaKAOZNv47yP+Jn4c/8ABdP/APH6X7P48/6Cnhz/AMF0/wD8frpiw3Dml3CgDlY7fx3hsan4c+8f+YdP6/8AXenG38d5H/Ez8Odf+gdP/wDH66SJhhv98/zpxYZH1oA5r7P48/6Cnhz/AMF0/wD8fpBb+O+can4c6/8AQOn/APj9dRuFNVhz9aAOZNv474/4mfhzr/0Dp/8A4/S/Z/Hn/QU8Of8Agun/APj9dMzDj60u4etAHKpb+O/MkxqfhzORn/iXT+n/AF3pzW/jvHOp+HOv/QOn/wDj9dIjDzZfqP5U5mGPxoA5r7P48/6Cnhz/AMF0/wD8fpBb+O8n/iZ+HP8AwXT/APx+uo3CmhhuNAHMtb+O9pzqfhz/AMF0/wD8fpfs/jz/AKCnhz/wXT//AB+umZhtNLuHrQByv2fx355/4mfhzO3/AKB0/r/13pzW/jvac6n4c6f9A6f/AOP10m4faD/uD+dPZhtP0oA5n7P48/6Cnhz/AMF0/wD8fpPs/jvd/wAhPw5nH/QOn/8Aj9dPuHrSbhu/CgDmjb+PMf8AIU8Of+C6f/4/SC38d4H/ABM/Dn/gun/+P105YYNAYbRQByzW/jvzU/4mfhzODj/iXT//AB+n/Z/Hn/QU8Of+C6f/AOP10bMPOj+h/pUm4UAcutv472jGp+HP/BdP/wDH6Db+O9w/4mfhz/wXT/8Ax+unVhtFIWG4UAc19n8ef9BTw5/4Lp//AI/SLb+O8can4c/8F0//AMfrqNw9aarDbQBy8lv47ymdT8OfeGP+JdP/APH6f9n8ef8AQU8Of+C6f/4/XRysMx/74qTcKAOXFv47x/yE/DnX/oHT/wDx+g2/jvjOp+HOv/QOn/8Aj9dOrDB+tIzDj60Ac19n8ef9BTw5/wCC6f8A+P1Y8MaNqGlf2pNqV1bT3N9d/aXa2iaNB8irgKxY/wAI7mt/cKaGHP1oAbMD5R+Y9v51Jg/3jUczDyj+H86k3CgBoByfmNDA7T8xpQwyeaRmG00AOwf7xpADuPzGl3CkDDcaAGyA+U/zHoaVAdi/MegokYeU/wDumhGGxfoKADB3H5j0pSDg/MaNw3H6UFhg0AABwPmNJg7vvHpShhgUbhu69qAFwf7xqOAHyV+Y1JuFRwMPJWgBxB3D5jTsH+8aaWG4U7cPWgA/jH0paZhtw57elLhvX9KAFX7ooP3hVW9voNM06e+u5RHbwIXdiOgFc5FqfjLUo1u7LSNNtraQbokvrhxLtPQsEBAPt2oA66o4fuN/vt/M1zPnePP+fPw//wB/5v8A4mkWTx4oIFn4f6k/6+bv/wABoA6o9V+tLXK+d48/58vD/wD4ETf/ABNHnePP+fPw/wD9/wCb/wCJoA6leh+tDdvrXLCbx4P+XLw//wCBE3/xNHnePD/y5eH/APwIm/8AiaAOqqOP/WS/7w/kK5nzvHn/AD5+H/8Av/N/8TSCTx4Cx+x+H/mOf9fN/wDE0AdU3T8RS1ypm8eH/ly8P/8AgRN/8TR53jz/AJ8/D/8A3/m/+JoA6kfeahvumuW87x5/z5eH/wDwIm/+JoM3jw/8uXh//wACJv8A4mgDqqjH/Hw3+4P5muZ87x5/z5+H/wDv/N/8TSeZ483lvsfh/JGP9fN/8TQB1TfdP0pa5UzePCMfY/D/AP4ETf8AxNHnePP+fPw//wB/5v8A4mgDqP4/wpT90/SuW87x5nP2Lw//AOBE3/xNHnePP+fPw/8A+BE3/wATQB1I6CmN/r0/3W/pXM+d48/58/D/AP3/AJv/AImkMnjwuG+x+H8gEf6+b/4mgDq6Rfuj6Vy3nePP+fPw/wD9/wCb/wCJoE3jwDH2Pw//AOBE3/xNAHUH74p1cr53jzOfsXh//wACJv8A4mjzvHn/AD5+H/8Av/N/8TQB1K/dFMk+9F/v/wBDXMibx4P+XPw//wCBE3/xNI0njxipNn4f4Of9fN/8TQB1dIvT8TXLed48/wCfPw//AN/5v/iaBN48H/Ll4f8A/Aib/wCJoA6hu31p1cr5vjw/8uXh/wD8CJv/AImjzvHn/Pn4f/7/AM3/AMTQB1K9/rTJv9X+I/mK5nzvHg/5cvD/AP4ETf8AxNI0njxlwbPw/wBQf9fN/wDE0AdXSDq31rlvO8ef8+fh/wD7/wA3/wATR53jz/ny8P8A/gRN/wDE0AdQ33adXKmbx4f+XLw//wCBE3/xNHnePP8Anz8P/wDf+b/4mgDqR9402b/Uyf7prmPO8eZ/48vD/wD4ETf/ABNI0vjxlKmz8P4Ix/r5v/iaAOqX7o+lH8Z+lcsJvHgH/Hn4f/7/AM3/AMTR53jzOfsXh/8A8CJv/iaAOpb7poHQVy3nePP+fPw//wB/5v8A4mjzvHn/AD5+H/8Av/N/8TQB1P8AH+FLXK+d48zn7F4f/wDAib/4mjzvHn/Pn4f/AO/83/xNAHTQf6hPpTz98fSuVWTx4iBRZ+H8Af8APeb/AOJpfO8eZz9i8P8A/gRN/wDE0AdVSL90Vy3nePP+fPw//wB/5v8A4mgTePAP+PLw/wD+BE3/AMTQB1J+8tLXK+d48/58vD//AIETf/E0ed48/wCfPw//AN/5v/iaAOmh6N/vn+dPPVfrXKrJ48UHFn4f5JP+vm/+JpfO8ef8+Xh//wACJv8A4mgDqqRe/wBa5bzvHn/Pn4f/AO/83/xNHnePB/y5eH//AAIm/wDiaAOpbt9aWuV87x4f+XPw/wD+BE3/AMTR53jz/nz8P/8Af+b/AOJoA6ZP9bL9R/Knt0/EVyok8dhmP2Pw/wA/9N5v/iaUzePD/wAuXh//AMCJv/iaAOqpB95q5bzvHn/Pn4f/AO/83/xNHnePM/8AHl4f/wDAib/4mgDqW+6aWuVM3jwjH2Lw/wD+BE3/AMTR53jz/nz8P/8Af+b/AOJoA6b/AJeD/uD+dPb7p+lcr5njvfu+x+H84x/r5v8A4mlM3jwjH2Lw/wD+BE3/AMTQB1VJ/H+Fct53jz/nz8P/APf+b/4mjzvHmc/YvD//AIETf/E0AdUehpF+6PpXLed48/58/D//AH/m/wDiaPO8eD/lz8P/APgRN/8AE0AdM3+vj+h/pUlcoZPHZYN9j8P5H/Teb/4ml87x5/z5+H/+/wDN/wDE0AdSv3R9KD94Vywm8eAY+x+H/wDwIm/+Jo87x5n/AI8vD/8A4ETf/E0AdVSL92uW87x5/wA+fh//AL/zf/E0Cbx4P+XLw/8A+BE3/wATQB00vWP/AHxUlco0njtsZs/D/Bz/AK+b/wCJpfO8ef8APn4f/wC/83/xNAHUr0P1NDdvrXLed48H/Ln4f/8AAib/AOJo87x4f+XLw/8A+BE3/wATQB1VIvf61y3nePP+fPw//wB/5v8A4mjzvHg/5cvD/wD4ETf/ABNAHTT/AOqP1H86krlGk8duuDZ+H/8Av/N/8TS+d48/58/D/wD3/m/+JoA6kdW+tD/dNct53jz/AJ8/D/8A4ETf/E0Gbx4RzZeH/wDwIm/+JoA6qkH3jXLed48/58/D/wD3/m/+Jo87x5nP2Pw//wCBE3/xNAHUSf6p/wDdNCf6tfoK5Yy+PGUg2fh/kY/183/xNKJfHgAH2Pw/x/03m/8AiaAOp/jP0oP3T9K5R7zxzbqZn0rRrlVGTFb3MgkYeillxn61t6Nq0Gu6RDqFqXWOQEFJFw8bAkMjDsQQQfpQBoD7o+lH8f4UgDYHP6UmG3de3pQA+o4P9StPw3r+lRwBvJXn9KAJD94fjS0whtw5/SnYb1/SgCPzotw/eJ0/vCl86L/nqn/fQpdq7x8o6elLtX+6PyoA5T4hSofAt8okU5aIEBuv7xa62uT+IageBb3gfei7f9NFrrKACiiigAooooAKKKKACiiigAooooAKKKKACiiigAooooAjuJ4rW3kuJ3EcUal3c9FA6mq+l6rY61psOoabcJcWkwzHKmcMOneuU+JuqW9votnpE15Daf2tdJbPNLIEVIs7pCSTgfKMfjVTwJq2mweKde8O6bfWl1ZblvrM20yyKiPw6ZUnGGGce9Edb/1/X/AYPRL+v61O4sNRtNTgaeynWaJZGjLKDwynBHPoatV5X4ai8Uf8I7ql7pmo21tHa3t08Nq9uHFxhySHYnIz0G3GPeteDxVqXiu702w0OePTxPp6X91ctGJGQMSqoinjOQ2Sc9KSd0vl+V/0YPS/z/Ox3tFecan4s1zR9D8WWNxcQyato1vHcW96kQAljkztLJ0DAhge3Q10fibV7zTZ/Dq2sgQXupx28+VB3IUckc9OQOae7Vuv6g9E32v+Cub0N1b3Es0cMySPC2yVVbOxsZwfQ4I/OobzVbHT7mztrq4WKa8kMVuhBzI2M4H4VxvgKzv4fEni6S41R7iIakVMRhRQzeVGQ2QM8DC46cZ61L44B/4SvwQccf2m3/otqI68vnb8Q7+V/wADrtR1Oy0m1+1X9wsEG9U3sDjcxwBx6k1brjPigf8Aijh/1/Wv/o1ayte8WXkHii80y48Q2/hxYVT7Cbq1DR3mVBJaRvlAB4wCDSTvf+ui/wAxtHpFFVNLluZ9LtZbw25uXiVpDbMWjLY5Kk9R6VbqmrOxKd1cKKKKQwooooAKKKKACiiigAooooA5Wb4keEre6mtpNXXzYZDHIFglbawOCMhcVv6bqdjrFkl7p11Fc2z/AHZImyPp9favMvBviQaWmuW3/CO6xqB/ti6bzrS2R05c8ZLg5/CpQ2u+F/CviHX4LJdOudR1WGa2sJNreWjPHGd2MgFuScdM+tEdUn3S/G2n4g97eb/U9IudTsrO9s7O4uFjuLxmW3jOcyFV3ED6AE1briLu51zSfEXhuwu9VS8N/cziRzaom1RCWCrgcYYdeuODmqo8Xanb+BdRed0k8QWl22nD92AHmLgRttHHKsp/Oj+v6+8P6/P/ACPQaK4fX9T1HTriGC/8X6ZosIgTbIyRtcXMv8R2NwFz2Ud+1Z1j471S88LWfkG1l1W71RtMhuGjZYjtzmUocEfKM7eOaPT+tbB/X4XPSaK4q6j8bafbalbR30d+TZNNaXxgjRo5158pkHDBh0OOKe/im41W18KLpMixzau6zykqG2QIu6Xg9DnansWoWv8AX9dgeh1V9e22m2M97eSiK2gQySyHOFUDJPFc3F8S/B8zIF1uNQ+MM8UiLz/tFQB+dWPiB/yTzxD/ANg+b/0A1y1p4klvvBVtplv4L1q5ml09IUM1vEkLnywMli/C984pX38v+CO23nf9P8z0xHWRFdGDKwyGByCKgvr6202ylvLyUQ28K7pJG6KK4LSzrtiujeB7O/jtru001Z72+aMSsoztCIG4PPc9h0qvrms6i/h3xd4e1eWK4u7C1SRLqNNnnRP0LL0DAgg44py0vbz/AAFHpfy/E9Ag1ewudRk0+G5R7uOFZ2iGchGztb8cGrtefSeK59F1bWmmCyWWnaFBdpGEAZnO7jdjODgD2q9Zf8JnF/ZupT3dtfxXTp9qsI4VjW3jYfejcnLbeM7s57Yo3/rza/QXS/8AWyf6nZ0VwcXi3ULLwhrzXzrNrWl3UlmnyBfOdiPIO0cfMHT9a7SwS5i0+2jvJhNdLEomlChQ74+Y4HAyc0efp+I3o7ev4FiiiigAooooAKKKKACiiigDG1nxXoXh+WOLVNSht5ZBlY+Wcj12qCce9Tf8JFo50J9bXUIH0yNC73KNuVQOucfyrkL+08QeGvFuqazY6BHr1nqXllgkyx3FvtXG0buGXvgHOTWWuu6fbeFfGur6Et3YakoE9xpt9bqv2aXaBuCEYIbGc8g0r+635Dt7yR6et7bPcRwLOhmkj81Y8/MU4G7HpyKnrzwQahJ8VrS7OrPHD/YwmeIQR42CRdyZxnBPOeo6dKxE+JEt9pc2vReLtEtGUu9vo0uwl41JwsjE7g7AZ4wBkcGn0v6/m1+hK1/D8Vc9erM03xDpOr3t7Z2F7HPc2T7LmNQQY29DkfyqbR9Si1nRbHU4VKx3cCTKp6gMAcfrXlfhMDSfHFzqg+WLUNWutPnPbd8rRk/iCKLPn5X2f6L9Qv7vMv63PT7zX9K0/VrLS7q9jivr3P2eE53SY64x/WtKvI9WA1L4maLrTDKpq7WFufREiYv+bk1seIdf1CxvL0TeMtK0u4iLG106KJZ3dQMjzARvyf8AZAx70rpRu/6/q5TWtv66r9D0SivOj4n8Ra2fBy6TJb2Z1mxluLovH5gi2rGdyg9wWIA6c85xW3oOq6pb+J73w1rFzHeTRWyXlvdpEI2kjZipDqOAwI6jGQaqzTt6/gK+lzqqKKKQBRRRQAUUUUAFFFFABRRRQAUUUUAFFFFABRRRQAVyngySNIteUuq/8Tm74Jx/HmurrlfBigxa/kA/8Tm77f7VAHTCaLA/eJ/30KTzot/+sTp/eFPCLgfKPypNq7/ujp6UAHnRf89U/wC+hUcM0QhXMif99Cptq/3R+VRwKvkr8o/KgAM0W4fvE/76FO86L/nqn/fQoKruHyj8qdsX+6PyoAb824cjp6Uvzeo/KjI3jntS5HrQBynxDz/wgt70+/F/6MWusrmvHVrNe+CdQit0MkqqsgRRksFYMQPfANbWn6nZ6pYQ3tncRywTKGRlYf5zQBbopu9P76/nRvT++v50AOopu9P76/nRvT++v50AOopu9P76/nRvT++v50AOopu9P76/nRvT++v50AOopu9P76/nRvT++v50AOopu9P76/nRvT++v50AOopu9P76/nRvT++v50AOopu9P76/nRvT++v50Aczc+F5NU8cjV9US1n062s/ItLdhvIkZsu7AjA4AA5PeotU8IbfEWiazoUNlaTWcrJcrt8sSwMMMPlHJBwRmur3p/fX86N6f31/OhaW8get/M8/sfDPjLTNL1DSra90n7NfXE0gnfzPMtUkJztGMOcHuVwfWr3/AAh95oV1p194ZltjNa2S2EtvellSeNTlTuUEqwJPOCOa7Len99fzo3p/fX86Fpt/XQHrucS/ge81XTfEbaxewDU9chWAtbITFbIgOxVzy2CSSTjOe1JcaB4r1i80KbVZtJhTS71LhktWkbz8KVLZZRt4JwvPX73FdvvT++v50b0/vr+dC0d/T8Aeqs/P8TndD0bUtJ8S63MxtZNN1GcXSOHYTI+xUKlcYI+XOc59ql8VeHpdetLR7O6W01GxuFubSZ03qHHZh3UgkGt3en99fzo3p/fX86O3l+gdzirjQfFPiWezg8RSaRbabbXCXDRWDSSPcOhyoJcAKuecc9OtWdT0bxF9vvxZtpmpadfYP2bVGfFscYO0BWDKeu35ec811m9P76/nRvT++v50dLAZPhbQh4a8M2Oj+eZzbR7TJt2gnOTgdhzwPStim70/vr+dG9P76/nTbu7iStoOopu9P76/nRvT++v50hjqKbvT++v50b0/vr+dADqKbvT++v50b0/vr+dADqKbvT++v50b0/vr+dADqKbvT++v50b0/vr+dAHPeD9Bu/D9pqMV28Ltc6hPdJ5TEgI7ZAOQOan8XaNc69oDWFq8SSm4glzKSFwkquegPOFOK2t6f31/Ojen99fzoXTyt+Ad/wCtzB1rQ7rUfE3h3UoXhEOmzTSTByQxDRlRt455Pcisy78GXFx8QYNaW4iGlfLPPbEnc9yisqNjGMYbnnqorsd6f31/Ojen99fzoWjuD1OOm8Oa5Y+MNR1jShpVymoxxqzXxcSWxQY+TaDuU9duV571Qs/AWqw6I8MupWx1S31Z9StLoRkoxPZ04wCCRgE445r0Den99fzo3p/fX86Erf153B6/15WOd0628QNqp1TX7yztbaGExpZ2cztESTkySMwXJ4wBjjnk1g/D/SYxr+u6jBcJcabBcSWmmMmCqoz+ZLtI6jzG2/8AAK72dLe5gkgnWKWGRSrxyAMrA9QQeopttDaWVtHbWsUMEEY2pFEoVVHoAOBQtHf+v6/zB6qxQ8UaXPrfhXVdLtmjWe7tZIY2kJChmUgZIBOPwqzo9pJYaJYWcpUyW9vHE5Q5BKqAce3FW96f31/Ojen99fzoXUHrb+v62Oa1nQtTXxHB4h0KS1+2rAbae3uyyxzR5yPmUEqwPfB+lZc/gzVL7TPENxe3No2s6xEsIWPcIYEX7qgkZPck4/Cu53p/fX86N6f31/Oi2lgv1ONm8Ey3+r6u99JF9h1DSItPIjY+YrLuy2CMY5GOe3Sn22k+L5FsNPvdQsYbGzdGkurNpBPdKnRSpGIwcDdgtnkcV1+9P76/nRvT++v50LT+vO/6h0t/Xb9Dz2702DVvi1btZXUUtpHAl3qUUbBgJoiywZx0J3scf9MxXolVLSy0+wMxs7a1tzO5klMMap5jnqzY6n3NWd6f31/OhaJL+v66fIHq7jqKbvT++v50b0/vr+dADqKbvT++v50b0/vr+dADqKbvT++v50b0/vr+dADqKbvT++v50b0/vr+dAHIS6F4k0bWb+98OXOn3FtfyedNZ6iXTy5MYLI6A4B9CtUb3wRq+p6L4klvruyfXNZtVtgIlZLeFFztUE5Y9SS2O/Su93p/fX86N6f31/OlbSw763OZn0LU4vFWm6ra/Y5YFsfsN3HM7KwXcG3oQpyeCMHH1rIt/C3ijSdIfw/pN3pa6dllt7+UP9pto2JO0IBtdlzgNuHbIrvd6f31/Ojen99fzp/1+olpt/XQjtLf7LZw2/myS+Uip5khyz4GMk9ya4h/BOpHw1rdnHcWqahcam+oWEu5isbZBQt8uQeDnAPWu73p/fX86N6f31/Oh6u/9dH+gLRWOM/4Q28SLwmkctuTpVy1xdszMPMLIwYrxz8zd8cVWsvCfiLSxqun2U2lC1v7iWb+0ZVdrlBITkFMbWIzgNu9OD0rvN6f31/Ojen99fzoet7/1t/kNNq3l/wAH/M8s/sbXNF1PwDpltcWY1KwsLpH3bmhmCiMFc4BGeuccEdDXY6FoeoR65ea/rclsdQuIUto4bXcY4IlJbAZgCxLEknA7cVuvBaSXMVy8UDXEQZY5WUFkDYyAeozgZ+lS70/vr+dO739fxFbSw6im70/vr+dG9P76/nSAdRTd6f31/Ojen99fzoAdRTd6f31/Ojen99fzoAdRTd6f31/Ojen99fzoAdRTd6f31/Ojen99fzoAdRTd6f31/Ojen99fzoAdRTd6f31/Ojen99fzoAdRTd6f31/Ojen99fzoAdXK+DM+Vr+Mf8hm7/8AQq6Wa5gt4XmmmjjiQFmd2ACgdya5vwMTNo99qAUrDqGoXN1b7hgtEznY2PcAEexFAHTjdgcj8qT5t3UdPSnAjA5pMjf17UAL83qPyqODd5K8j8qkyPWo4CPJXmgBx3bhyPyp3zeo/KkJG4c0uR60AJgbxwOlLgegpvzbhwOlL83oKABQNo4rn7rwN4au7t7iTSYlllJZzE7Rbj6kKQCfet9d20dKDu3DgUAc3/wr3wv/ANA1v/AmX/4qmR/D/wAMMpJ01vvEf8fMvr/vV1PzegqOLdtbp99v5mgDnD8PvC4I/wCJY3J/5+Zf/iqX/hXvhf8A6Brf+BMv/wAVXSHdkcDrTvm9BQBzA+H3hc5/4ljdf+fmX/4qg/D7wuMf8Sxuv/PzL/8AFV0q7sHp1obdxwOtAHN/8K98L/8AQNb/AMCZf/iqYnw+8MF5AdNbg4H+ky+g/wBqup+b0FRpu8yXp94fyFAHOH4feFwP+QY3X/n5l/8AiqX/AIV74X/6Brf+BMv/AMVXSNux0HWnfN6CgDmB8PvC5J/4ljf+BMv/AMVQ3w+8LgZ/sxv/AAJl/wDiq6UbsnpQ27b2oA5v/hXvhf8A6Brf+BMv/wAVTB8P/DHnMv8AZrY2g/8AHzL7/wC1XU/N6Coxu+0N0+4P5mgDnG+HvhcKT/Zjf+BMv/xVL/wr3wv/ANA1v/AmX/4qukbdtPTpS/N6CgDmf+FfeF92P7Mbp/z8y/8AxVKfh74XAP8AxLW/8CZf/iq6T5t/bpSndg9KAOaHw98L4/5Brf8AgTL/APFUw/D/AMMCVF/s1sEH/l5l9v8AarqBuwOBTG3eenT7rf0oA53/AIV74X/6Brf+BMv/AMVSL8PfC5UH+zG/8CZf/iq6b5vQUi7to6dKAOaPw+8L7gP7Mb/wJl/+Kpf+Fe+F/wDoGt/4Ey//ABVdId24dKd83oKAOYHw+8LkZ/sxv/AmX/4qmv8AD/wwrJjTW5bB/wBJl9D/ALVdOu7b2psm7dH0+/8A0NAHO/8ACvfC/wD0DW/8CZf/AIqkHw+8Lkf8gxuv/PzL/wDFV0/zegpq7sdB1oA5o/D7wuMf8Sxuv/PzL/8AFUv/AAr3wv8A9A1v/AmX/wCKrpG3cdOtO+b0FAHMD4feFzn/AIljdf8An5l/+Kpsvw/8MKmRprdR/wAvMvr/AL1dON3PTrTZt3l9uo/mKAOd/wCFe+F/+ga3/gTL/wDFUg+H3hck/wDEsbg/8/Mv/wAVXT/N6Cmjdk8DrQBzTfD7wuBn+zG/8CZf/iqX/hXvhf8A6Brf+BMv/wAVXSNu29qd83oKAOYHw+8L5I/sxv8AwJl/+KpJPh94XWJyNNbIBP8Ax8y//FV0w3bj0pJd3kvwPun+VAHNj4e+FyAf7Mb/AMCZf/iqP+FfeF9xH9mN0/5+Zf8A4qumXdtHA6UnzbjwOlAHNn4e+FwD/wASxv8AwJl/+KoHw98L4/5Brf8AgTL/APFV0p3YPAoG7A6UAcz/AMK+8L7sf2Y3T/n5l/8AiqX/AIV74X/6Brf+BMv/AMVXSfNu6DpTvm9BQBy0Xw/8MNErHTWyR/z8y/8AxVO/4V94X3Af2Y3T/n5l/wDiq6ODd5CdOlO+bcOB0oA5v/hXvhf/AKBrf+BMv/xVIvw+8LkA/wBmN/4Ey/8AxVdN83oKRd20dKAOaPw+8L5A/sxv/AmX/wCKpf8AhXvhf/oGt/4Ey/8AxVdId24cCnfN6CgDlo/h/wCGGDZ01uGI/wCPmX1/3qcfh94XBH/Esbk/8/Mv/wAVXRxbsN0++f5047sjgdaAOb/4V74X/wCga3/gTL/8VSD4feFzn/iWN1/5+Zf/AIqun+b0FNXdz060Ac0fh74XGP8AiWN1/wCfmX/4ql/4V74X/wCga3/gTL/8VXSHdxwOtO+b0FAHLL8P/DBdwdNOARj/AEmX0/3qc3w+8Lgf8gxv/AmX/wCKro03ebL06j+VObdjoOtAHN/8K98L/wDQNb/wJl/+KpB8PvC+SP7Mb/wJl/8Aiq6f5vQU0btx6UAc03w+8LgE/wBmN/4Ey/8AxVL/AMK98L/9A1v/AAJl/wDiq6Rt209Kd83oKAOW/wCFf+GPOK/2acbc/wDHzL/8VTj8PfC4Un+zW/8AAmX/AOKro/m+0Hp9wfzp7btp4HSgDmv+Fe+F/wDoGt/4Ey//ABVJ/wAK+8L7sf2Y3T/n5l/+Krpvm9BSfNu7dKAObPw98L4/5Brf+BMv/wAVQPh74XIB/sxv/AmX/wCKrpTuweBQN20dKAOXb4f+GBKi/wBmnBB/5eZf/iqf/wAK98L/APQNb/wJl/8Aiq6Jt3nR9Oh/pT/m9BQBzK/D3wuVB/sxv/AmX/4qg/D7wvkD+zG/8CZf/iq6Vd20cCg7tw6UAc3/AMK98L/9A1v/AAJl/wDiqRfh94XI/wCQY3/gTL/8VXT/ADegpq7tvagDmH+H/hhSmNNPLY/4+Zf/AIqn/wDCvfC//QNb/wACZf8A4quil3Zj6ffFSfN6CgDmB8PfC5/5hjdf+fmX/wCKoPw+8LjH/Esbr/z8y/8AxVdKu7B4HWht3HTrQBzf/CvfC/8A0DW/8CZf/iqQfD7wuc/8Sxuv/PzL/wDFV0/zegpo3c8DrQBzEvw/8MLGSNNOeP8Al5l9f96n/wDCvfC//QNb/wACZf8A4quim3eUenb+dSfN6CgDmB8PfC+T/wASxv8AwJl/+Kob4feFwM/2Y3/gTL/8VXSjdk8Cht205xQBzf8Awr3wv/0DW/8AAmX/AOKpP+Fe+F8kf2Y3/gTL/wDFV0/zegpo3bjwKAOaf4feFwjEaa2QD/y8y/8AxVC/D7wuVB/sxuR/z8y//FV0km7yn6fdNKm7YvA6CgDnI/AHhZJlY6RHJtIYLNI8i591ZiD+VdJtVUwFAAGAAOlJ8248DpSndg9KAFAGBwKTA39B0oG7A6Unzbug6UAOwPQVHAB5K8CpPm9BUcG7yV6UAPIG4cClwPQU07tw4FO+b0FAB/GPpS1D9nh3D92vSl+zw/8APNfyoAkX7ooP3hUS28O0fu1/Kg28O4fu1oAmqOH7jf77fzNJ9nh/55r+VMit4ipzGv3m7e9AE56r9aWoTbw5H7tetcz8QIlj8IXBjzGxlhXchKkAyKDgigDq16H60N2+tcr/AMK70H11D/wPm/8AiqP+Fd6D66h/4Hzf/FUAdXUaf6yX/eH8hXMf8K70H11D/wAD5v8A4qj/AIV3oPrqH/gfN/8AFUAdU3T8RS1yn/Cu9B9dQ/8AA+b/AOKo/wCFd6D66h/4Hzf/ABVAHVD7xob7tcr/AMK70H11D/wPm/8AiqP+Fd6D66h/4Hzf/FUAdXUY/wCPhv8AdH8zXMf8K70H11D/AMD5v/iqP+Fd6D66h/4Hzf8AxVAHVN90/SlrlP8AhXeg+uof+B83/wAVR/wrvQfXUP8AwPm/+KoA6r+P8KD0Ncr/AMK70H11D/wPm/8AiqP+Fd6D66h/4Hzf/FUAdUOgpjf69P8AdP8ASuY/4V3oPrqH/gfN/wDFUf8ACu9B9dQ/8D5v/iqAOrpF+6PpXK/8K70H11D/AMD5v/iqP+Fd6D66h/4Hzf8AxVAHVH7wpa5T/hXeg+uof+B83/xVH/Cu9B9dQ/8AA+b/AOKoA6pfu0yT70f+9/Q1zH/Cu9B9dQ/8D5v/AIqj/hXeg+uof+B83/xVAHV0i9PxNcr/AMK70H11D/wPm/8AiqP+Fd6D66h/4Hzf/FUAdU3b60tcp/wrvQfXUP8AwPm/+Ko/4V3oPrqH/gfN/wDFUAdUvf60ybmP8R/MVzH/AArvQfXUP/A+b/4qj/hXeg+uof8AgfN/8VQB1dIOp+tcr/wrvQfXUP8AwPm/+Ko/4V3oPrqH/gfN/wDFUAdU33aWuU/4V3oPrqH/AIHzf/FUf8K70H11D/wPm/8AiqAOqH3jTZf9S/8AumuX/wCFd6D66h/4Hzf/ABVH/Cu9B9dQ/wDA+b/4qgDql+6PpR/EfpXK/wDCu9B9dQ/8D5v/AIqj/hXeg+uof+B83/xVAHVHoaB0Fcr/AMK70H11D/wPm/8AiqP+Fd6D66h/4Hzf/FUAdV/H+FLXKf8ACu9B9dQ/8D5v/iqP+Fd6D66h/wCB83/xVAHTwjECZ9Kf/EPpXK/8K60Ed9Q/8D5v/iqP+Fd6D66h/wCB83/xVAHV0i/dFcr/AMK70H11D/wPm/8AiqP+Fd6D66h/4Hzf/FUAdUfvClrlP+Fd6D66h/4Hzf8AxVH/AArvQfXUP/A+b/4qgDp4hgN/vH+dPPUfWuV/4V3oPrqH/gfN/wDFUf8ACu9B9dQ/8D5v/iqAOrpF7/WuV/4V3oPrqH/gfN/8VR/wrvQfXUP/AAPm/wDiqAOqbt9aWuU/4V3oPrqH/gfN/wDFUf8ACu9B9dQ/8D5v/iqAOnQfvZPqP5U9un41yv8AwrvQfXUP/A+b/wCKo/4V3oPrqH/gfN/8VQB1dIPvGuV/4V3oPrqH/gfN/wDFUf8ACu9B9dQ/8D5v/iqAOqb7ppa5T/hXeg+uof8AgfN/8VR/wrvQfXUP/A+b/wCKoA6fH+kE9to/nT2+6fpXK/8ACu9B9dQ/8D5v/iqP+Fd6D66h/wCB83/xVAHV0n8f4Vyv/Cu9B9dQ/wDA+b/4qj/hXeg+uof+B83/AMVQB1Z6GkH3R9K5X/hXeg+uof8AgfN/8VR/wrvQfXUP/A+b/wCKoA6dh++j+h/pUlcp/wAK70H11D/wPm/+Ko/4V3oPrqH/AIHzf/FUAdUv3RQfvCuV/wCFd6D66h/4Hzf/ABVH/Cu9B9dQ/wDA+b/4qgDq6Rfu1yv/AArvQfXUP/A+b/4qj/hXeg+uof8AgfN/8VQB08oyY/8AeqSuU/4V3oPrqH/gfN/8VR/wrvQfXUP/AAPm/wDiqAOqXofrQ3b61yv/AArvQfXUP/A+b/4qj/hXeg+uof8AgfN/8VQB1dIvf61yv/Cu9B9dQ/8AA+b/AOKo/wCFd6D66h/4Hzf/ABVAHTzDMRx6j+dSVyn/AArvQfXUP/A+b/4qsnxR4H0jTvCWs3ttJqCXFvYzSxN9ulO1lQkH73qKAPQB1b60N901R02GN9NtmZASYUJJ7/KKstbw7T+7X8qAJqQfeNR/Z4f+ea/lSC3h3H92v5UASSf6p/oaE/1a/QVFJbwiNv3a9DSpbwlF/dr0HagCX+I/Sg9DUX2eHcf3a9KU28OD+7X8qAJB0FH8f4VGLeHA/dr+VJ9nh3/6telAE1Rwf6laT7PD/wA81/KmQ28RhUmNfyoAnP3hS1CbeHcP3a0v2eH/AJ5r+VADstuHA6etLlvQfnSn74+lLQAxS20cD86CW3DgfnTl+6KD94UAGW9B+dRwltrcD77d/c1LUcP3G/32/maAFJbI4HX1rmPiFn/hEJ8gf6+Dv/01WupPVfrXL/EL/kUJ/wDrvB/6NWgDqaKKKACiiigAooooAKKKKACiiigAooooAKKKKACiiigAooooAKKKKACiiigArHg13f4su9BmtvKeO2S6gl35E6ElW4xwVIAPJ+8K2K5PxkBpl1pHiZflGnT+XdH/AKdpcI+fZTsf/gNHVXDozSm8RRQ+JX0lo0WKCz+1XV28oVYQWwikEd8MeoxtpLnxTpg0C+1bTbu01OO0QswtrhXBI7FlziuImuLRdBOualp8N7Lr+rRtbR3cxihRFOIDIwBwmF34IPL9KyL65eXxH4kV20kSnQGMyaYSyBg4xuY43Ng+gwKl35X31/K//AH1/rvb/gnp2l+IBqWr3Vh9m8r7Pbwz+Z5md3mAnGMcYx1q7aa1pmotOlhqNndyQcSpBOrlD6Ng8fjXl+ufajY+KfsZYSf2XYbiq7iI8fPx3G3OR3GauafYwtrugXCeKNHmdIpDb2+m6T5bSw7OVZllbanQ8jGRVy0v/XcS2Xy/Jf5nc2PiK1k8OW2s6pNZ6dFKgZi95G8aE9vNB2t9RWpb3MF3bpcW00c0MgykkbBlYeoI4NeSeDjZpJ4PbWPKFn/YzCyNxjyxcb/nxnjfs2474zjvXW+Bvs51jxS2meX/AGMb5Ps3kj935nlL5uzHGN3XHGc0W/X8HYX/AAPyuPvfFmtnxRf6Lo3hyG/+wxRSSzS6iIP9YDgAeW39096vaJ4sj1CS6tNUtRpOo2kqRS2806spL/c2OMBt2DjgHjpXMLpmp6l8UfE39na/caTstrPf5NvFL5mQ+M+Ypxj29ad4g0GDwzpttqNxfXN5cTaxZz319dFQdquAOFAVVGegHelDpfr/AJjl1t/Wh2ms61b6Rp97PujluLW1e5+zeaFdlUdcckDPGcUmkeINO1iONYLy1N2YUlltUnV5ItwBwwHI69wK4TxPqFrfeI/EAtJ0mEPhuVXaNtwBLE4yO9Mi/sJtP8Cx6ALT7es8TKLYDesXlnzd2OQOmc98U46/h+bX6A9Px/JM67TPFT6lHpUi2Uca3000Tb7tQ0fl55CkAvnHQdK1xrOlnU/7MGpWZv8AGfsvnr5uP9zOf0rzXSd//FG+VjzPtmobM+u18VP4dm8LweBNHGoWsVxqn2qMSwx4+1G+8z5ieQ24Nkk5+6D2pR1/D8RdDuvEet/8I/pa3pt/P3XEMGzft/1jhM5wem7NXr64NpYXFyqK7RRs4VpAgOBnBY8D6muY+JTpH4TR3YKi39oWZjgAeelXtc1fTbzw7qsNrqFrPKbSU7I5lY42nsDUt+636/ki0rySK9t42s/twt9SNrp8X2GG7a4lvEMYMhxsDcKfqDzW7c6tptnDHNdahaQRSKWR5ZlUMoGSQSeQBXmfhk6GvibTn1b7KJR4btfJa5xtAx82N3GcfpVPTLW3udR8KxmFJNMOsXz2KOuU8nblCo/u5zitLa29fzaIT0u/60ueo3PiLQ7KGCa71nToIrgAwvLdIqyg9CpJ5/CprvWdLsEV7zUrO2VkMitNOqAoCAWGT0yy8+49a4bU9Qsv+El1u3tdO0KBraKOK7u9WuCMoUyAkW05QA+qgnP1rB8EwQahc/D8XUMUwi0u/KBkyFKyRqCAenFStf69f8gen9en+Z63b6jZXdq91bXlvNboWDSxyqyKV65IOBjvU0M0VxBHPBIksUih0kRgysp5BBHUV5prqTadrmqeF7bMaeJZIZbbbxsz8lzj0wihvq1ei2U9nIjwWU0Lrat5DpEwPlMAPlOOhwRx70LVX/rzG9Hb+vIoabr327XtV0iW28iexKMp37vOjccOOBjkEY56VD/wlNqut6lZzmG3s9OjjM97NOEQSNzs544HOc96yvFk8fhvX9N8USHZbBHs70/7DfMh/Bhj8a59THp1loZvdNtLrWNXupr9W1C4MMELkZ5O1ssFwAMHv0oX9ev/AA2o3/X9euh2up+KrG10Eavp8tvqVu08UAa3uFZSXkVM7hkcbs49qsadriX2oazbPEIF0ydYmkaTIcGNZN3Qbcbsd+leTNcebN4sUPpxH9o6Wzf2eD5O/wA1AcE9TxyeOav+KBOV8UbJo4bT/hILP7bJLF5saQ+TFkumRuXdtyMgYzmqS0v/AF9n/Nk31/rz/wAj0wa/p9zpV3faXeWeoLbIzHybpCm4AnaXzhenU9KU67YWukWuoapeWenxzxo2ZrpAgZgDtD5w3XqOtedXViqXuo3J8SaZeXQ0S5V7fTtN8kPEVG0yOJGHB+7n1bHerfh86eniOwbWzAFPh61Gnm6xs6HztueM/cz3x7VK1/D/ANu/yB/1/wCS/wCZ6XHLHNEssTq8bjKspyCPUGq2p6la6PplxqF7J5dtAhd2xnj0A7k9MVyXgK8srWx1BYp4YdMuNVlTS1LBVdcDIjHcbt+APer/AMRLK4vfBtyLaN5XgkiuGiQZLqjhmAHfgGh7L5fL/hio6uxBL4v1e0tBql74Wnh0jAZ5RdK9xGh/jaEDoOpAYkDtWh4p8UL4e0SK+t7Q6hPcOEtrZJNhlJBY4OD0VWPTtUN9460S28OjVLW8gvGlUC2topB5k8h+7GB1znjpxXPXt7reteP4ZdN0q1uk0S12zRXN2YVS5mUEgMEbcVTA6D7xoaey/r+v1Eu7O+06/t9U022v7Vw9vcxLLGw7qwyKs1wnw5nu9POqeFtSgjtrrTpvPgijkMii2lJZArEDcFO5c4HQV3dN23Ql2YUUUUhhRRRQAUUUUAFFFFABRRRQAUUUUAFFFFABRRRQAUUUUAFFFFABWF42/wCRD8Q/9g24/wDRbVu1heNv+RD8Q/8AYNuP/RbUAaGllv7LtOB/qU7/AOyKtMW2ngfnVbS/+QXa/wDXFP8A0EVaf7poAXLeg/OkBbceB+dOpB940AMkLeU/A6HvSoW2LwOg70sn+qf/AHTQn+rX6CgBMtuPA6etKS2DwPzpf4z9KD900AIC2BwPzpMtu6Dp604fdH0o/jH0oAMt6D86jgLeSvA/Opajg/1K0AKS24cD86dlvQfnQfvD8aWgBu0bhx2pdo9Kbk7h8valyf7tAAqjaOKCo3DikUnaPloJO4fLQA7aPSo4VG1uP42/makyf7tRxE7W+X+Nv5mgB5UZHHeuX+ISgeEJ/wDrvB/6NWunJOR8veub8fRXE/hG5W3tpp5BLE3lwruYgSKTgd+BQB09Fct/wnVr/wBATxB/4LXo/wCE6tf+gJ4g/wDBa9AHU0Vy3/CdWv8A0BPEH/gtek/4Tu1JIGieIOOv/EtegDqqK5b/AITq1/6AniD/AMFr0f8ACdWv/QE8Qf8AgtegDqaK5b/hOrX/AKAniD/wWvR/wnVqP+YJ4g/8Fr0AdTRXLf8ACdWv/QE8Qf8Agtek/wCE7tc4/sTxBnr/AMg16AOqorlv+E6tR/zBPEH/AILXo/4Tq1/6AniD/wAFr0AdTRXLf8J1a/8AQE8Qf+C16P8AhOrX/oCeIP8AwWvQB1NFct/wnVr/ANATxB/4LXpP+E7tcgf2J4gyf+oa9AHVUVy3/CdWv/QE8Qf+C16P+E6tT/zBPEH/AILXoA6miuW/4Tq1/wCgJ4g/8Fr0f8J1a/8AQE8Qf+C16AOporlv+E6tT/zBPEH/AILXpD47tRjOieIOeB/xLXoA6qo57eG6t5Le4ijmhkUq8cihlYHqCDwRXNf8J1a/9ATxB/4LXo/4Tq1/6AniD/wWvQB0MthZ3Fj9imtIJLTaE8h4wY9o6DaRjHtUMei6VFEsUemWaRrGYgiwKAEPJXGOh9KxP+E6tf8AoCeIP/Ba9H/CdWv/AEBPEH/gtegDo47S2hlaWK3iSR1Cs6oAWA6An0FZs+jRWFleP4f03TLbULgffaIRq59XKDJ71nf8J1a/9ATxB/4LXpD47tQMnRPEAH/YNek1cE7F3RvDFnYeErHQL+G3v4beFY3E0QdHI6na2e9bMEENrAkFvEkUKDakcahVUegA6VzX/CdWv/QE8Qf+C16P+E6tf+gJ4g/8Fr1Td3cSVlY6RLW3juZbmOCJZ5QBJKqAM4HQE9TjJx9adNDFcQvDPEksTja6OoZWHoQetcz/AMJ1a/8AQE8Qf+C16P8AhOrX/oCeIP8AwWvSGbcOjaVbweRBptnFD5Zi8tIFVdh5K4A6H0p9tpWnWdzJc2thawTyAK8sUKqzgdASBk1g/wDCdWv/AEBPEH/gtekPjq1AJOieIMD/AKhr0AdCmnWMZhKWdupgZmi2xKPLLdSvHBOecU1dL09dROorYWoviu03IhXzCPTdjOKwf+E6tf8AoCeIP/Ba9H/CdWv/AEBPEH/gtegDob2xtNRtWtb61gurd8bop4w6HHIyDxVG18L+H7GVpLPQtMt5GUoWhtI0JU8EZA6H0rM/4Tq1/wCgJ4g/8Fr0f8J1a/8AQE8Qf+C16ANqfQtIuYhFPpVjLGFVAklujDav3RgjoOw7VYaztXeB2toWe3/1LFATHxj5fTjjiud/4Tq1/wCgJ4g/8Fr0f8J1a/8AQE8Qf+C16AN240nTbu8ivLnT7Sa6h/1U0kKs6f7rEZH4U6LTbGCSOSGyto3iDCNkiUFAxy2CBxkgE+tc+PHdqQCNE8QEH/qGvS/8J1a/9ATxB/4LXoAsxaLfXPi7+2NSltWgtI3i0+KFTuUPje7k/wAWFAAHGCa07DTY7Ca9lQgtdzmd8IFAO0L268KOTzWH/wAJ1a/9ATxB/wCC16P+E6tT/wAwTxB/4LXoA6O6tLa9t2t7u3iuIW+9HKgdT9QeKZeadY6ja/Zr6yt7q3yD5U8SunHTgjFc/wD8J1a/9ATxB/4LXo/4Tq1/6AniD/wWvQBu/wBkaaFKjTrTaQgI8lcYQ5UdOx5HpUy2lshnK28QNwczEIP3hxj5vXgAc9hXNjx3anponiD0/wCQa9L/AMJ1a/8AQE8Qf+C16AJ9X8PbPDt7pvhyy0yxkvFMchMXloFYEM2EHLc8Z/Or66Dp0mjWml3tnb3tvbRpGq3MKyD5QADgg88Vk/8ACdWv/QE8Qf8Agtej/hOrX/oCeIP/AAWvR/X3AbV5pMF41iCESOzmWVFWMcFRwB/dH0+lX65b/hOrX/oCeIP/AAWvR/wnVr/0BPEH/gtegDbi0TSoNQbUItMso71vvXKW6iQ/VsZqzDa29s0rQQRRNM/mSFECl2/vHHU8da5r/hO7Ukj+xPEGR1/4lr0v/CdWv/QE8Qf+C16AOj+yWwvDefZ4vtJTyzNsG/ZnO3d1xnnFTVy3/CdWv/QE8Qf+C16P+E6tf+gJ4g/8Fr0AdTRXLf8ACdWo/wCYJ4g/8Fr0f8J1a/8AQE8Qf+C16AOporlf+E7tc4/sTxBnrj+zXpf+E6tf+gJ4g/8ABa9AHU0Vy3/CdWv/AEBPEH/gtej/AITq1/6AniD/AMFr0AdTRXLf8J1a/wDQE8Qf+C16P+E6tf8AoCeIP/Ba9AHU0Vyv/Cd2uQP7E8QZPT/iWvS/8J1a/wDQE8Qf+C16AOporlv+E6tT/wAwTxB/4LXo/wCE6tf+gJ4g/wDBa9AHU0Vy3/CdWv8A0BPEH/gtej/hOrX/AKAniD/wWvQB1NFcqfHdqMZ0TxBzx/yDXpf+E6tf+gJ4g/8ABa9AHU0Vy3/CdWv/AEBPEH/gtej/AITq1/6AniD/AMFr0AdTRXLf8J1a/wDQE8Qf+C16P+E6tf8AoCeIP/Ba9AHU1heNv+RD8Q/9g24/9FtVI+O7UDJ0TxAB/wBg16zPEvixNT8Lavp9toWvm4ubKaGMHTnALMhA57cmgDsNLUf2Xacf8sU/9BFWmUbTxVbTQ6abbKyEMsSAg9jtFWWJ2n5aAHbR6UgUbjxS5P8AdpoJ3H5aACRR5T8fwmhFGxeOwpJCfKf5f4TSoTsX5ewoAXaNx47UFRg8UmTuPy9qUk4Py0AAUYHFG0bunagE4Hy0mTu+72oAdtHpUcCjyV4qTJ/u1HAT5K/LQA8qNw4pdo9KaSdw+WnZP92gAP3x9KXtUPkDcPnk6f3zS+QP78n/AH2aAJF+6KD94VEsAKj55P8Avs0GAbh88n/fZoAmqOH7jf77fzNJ5A/vyf8AfZpkUIKn55PvN/GfWgCc9V+tLUJgGR88nX++aXyB/fk/77NAEi9D9aG7fWolhGD88nX++aDAOPnk6/3zQBNUcf8ArJf94fyFJ5A/vyf99mmJCN8nzyfeH8Z9BQBO3T8RS1C0Ax9+TqP4zS+QP78n/fZoAkH3mob7tRCEZPzyf99mhoBt+/J/32aAJqjH/Hw3+4P5mk8gf35P++zTBCPPYb5Puj+M+poAnb7p+lLULQDafnk6f3zS+QP78n/fZoAk/j/Cg9DUXkjfjfJ0/vmlMAwfnk/77NAEg6CmN/r0/wB1v6UggGB88n/fZpjQjzkG+Tof4z7UAWKRfuj6VH5A/vyf99mkWAbR88nT++aAJT94UtQmEbh88n/fZpfIH9+T/vs0ASL90UyT70f+/wD0NNWAbfvyf99mmyQgNH88n3v759DQBYpF6fiaj8gf35P++zSLAMffk6n+M0ASt2+tLUJhAx88nX++aXyB/fk/77NAEi9/rTJv9X+I/mKaIBz88nX++abNCBH9+TqP4z6igCxSDq31qPyB/fk/77NIIBk/PJ1/vmgCVvu0tQtANv35P++zS+QP78n/AH2aAJB9402X/Uv/ALppggG4/PJ/32aSWECJzvk+6f4zQBMv3R9KP4z9KiWAbR88nT++aPIG4/PJ0/vmgCU/dNA6CojAMH55P++zSiAYHzyf99mgCT+P8KWofIG778nT++aXyB/fk/77NACwf6hPpT/4x9KghhBhQ75On9807yBuHzydP75oAmpF+6Kj8gf35P8Avs0iwDaPnk/77NAEp+8KWoTANw+eT/vs0vkD+/J/32aAFi6N/vn+dPPVfrUEUIIb55PvH+M+tOMAyPnk6/3zQBNSL3+tR+QP78n/AH2aRYBz88nX++aAJW7fWlqEwDj55Ov980vkD+/J/wB9mgBU/wBbL9R/Knt0/EVAkI8yQb5Oo/jPpTmhAH35Ov8AfNAE1IPvGo/IH9+T/vs0ggG4/PJ/32aAJW+6aWoWgG0/PJ/32aXyB/fk/wC+zQAv/Lwf9wfzp7fdP0qDyR55G+T7o/jPrTmgG0/PJ0/vmgCak/j/AAqPyB/fk/77NJ5A3ffk6f3zQBMehpF+6PpUZgGPvyf99mkEA2j55On980AOb/Xx/Q/0qSq7QjzkG+Tof4zT/IH9+T/vs0ASL90UH7wqJYBtHzyf99mgwDcPnk/77NAE1Iv3aj8gf35P++zSLACPvyf99mgB0vWP/fFSVXkhAKfPJ94fxmn+QP78n/fZoAkXofrQ3b61EsAx9+Tr/fNDQDj55Ov980ATUi9/rUfkD+/J/wB9mkEI5+eTr/fNADp/9UfqP51JVeaECI/PJ2/jPrT/ACB/fk/77NAEg6t9aH+6aiEAyfnk/wC+zQ0ACn55P++zQBNSD7xqPyB/fk/77NIIBuPzyf8AfZoAkk/1T/7poT/Vr9BUUkAEbfPJ0P8AGaVIAUX55Og/jNAEv8Z+lB+6fpUXkDcfnk6f3zSmAYPzyf8AfZoAkH3R9KP4x9KjEAwPnk/77NJ5A3ffk6f3zQBNUcH+pWk8gf35P++zTIYQYlO+T/vs0ATn7w/GlqEwDcPnk/77NL5A/vyf99mgB2fmHynpS7j/AHTSn74+lL2oAYp+UfKaCfmHymnL90UH7woANx/umo4T8rfKfvt/M1LUcP3G/wB9v5mgBSeR8p607cf7poPVfrS0AMU8H5T1oY9PlPWnL0P1obt9aADcf7pqND+8l+U/eH8hUtRx/wCsl/3h/IUAKx4+6etO3H+6aG6fiKWgBgPJ+U0Mfl+6acPvNQ33TQAbj/dNRg/6Q3yn7g/malqMf8fDf7g/maAHMflPynpS7j/dNDfdP0paAGZ+f7p6UpPB+U0v8f4UH7p+lACBuB8ppjH9+nyn7rf0qQdBTG/16f7rf0oAfuP900in5R8p6U6kX7o+lADSfmHymnbj/dNIfvinUAMU/L9002Q/NH8p+/8A0NSL90UyT70X+/8A0NAD9x/ummqePunrT6Ren4mgBrHp8p607cf7ppG6j606gBinr8p602Y/u/unqP5ipF7/AFpk3+r/ABH8xQA/cf7ppoPJ+U9afSDq31oAax+X7pp24/3TQ33aWgBgPzH5TSSn9y/yn7p/lTx9402b/Uyf7p/lQAqt8o+U9KTPzH5T0py/dH0oH3z9KAEJ4PymgE4Hymlb7poHQUANz8/3T0p2T/dNH8f4UtAEUB/cJ8p6U7PzD5T0pIP9Qn0p5++PpQAbj/dNNU/KPlNPpF+6KAGk/MPlNO3H+6aD95aWgCKI8N8p++f504nkfKetJD0b/fP86eeq/WgA3H+6aap6/KetPpF7/WgBrHp8p607cf7pobt9aWgCJD+9l+U9R/KnMePunrSJ/rZfqP5U9un4igA3H+6aaD8x+U0+kH3moAax+U/KaduP900N900tAEWf9IPyn7g/nT2Pyn5T0po/4+D/ALg/nT2+6fpQAm4/3TSZ+b7p6U/tSfx/hQAhY4PymgH5R8ppx6GkX7o+lAEbH99H8p6H+lSbj/dNMb/XR/Q1JQA1T8o+U0hPzD5TTl+6PpQfvCgA3H+6aap+X7pp9Iv3aAI5TzH8p++Kk3H+6aZL1j/3xUlADVPB+U9aRj0+U9acvQ/U0N2+tABuP9000Hr8p60+kXv9aAI5j+6Pynt/OpNx/ummT/6o/UfzqSgBgPJ+U0MflPymnDq31of7poANx/umkB+Y/KadSD7xoAbIT5T/ACn7poQ/IvynoKWT/VP/ALpoT7i/QUAJu+Y/KelKScH5TS/xn6UH7p+lACAnA+U0mfm+6elOH3R9KP4x9KADcf7pqOA/uV+U1LUcH+pWgBSfmHymnbj/AHTQfvD8aWgD/9k=;strokeColor=none;strokeWidth=102;spacingTop=-3;spacingBottom=-3;spacingLeft=-3;spacingRight=-3;rounded=0;html=1;whiteSpace=wrap;" parent="1" vertex="1">
          <mxGeometry width="863" height="631" as="geometry" />
        </mxCell>
      </root>
    </mxGraphModel>
  </diagram>
</mxfile>
